<?xml version="1.0" encoding="UTF-8"?>
<svg version="1.1" xmlns="http://www.w3.org/2000/svg" width="227" height="222">
<path d="M0 0 C74.91 0 149.82 0 227 0 C227 73.26 227 146.52 227 222 C152.09 222 77.18 222 0 222 C0 148.74 0 75.48 0 0 Z " fill="#FDFDFD" transform="translate(0,0)"/>
<path d="M0 0 C38.91936979 0 38.91936979 0 51 6 C51.83289551 6.40702148 52.66579102 6.81404297 53.52392578 7.23339844 C60.17531091 10.5280439 66.81811533 13.87874355 73 18 C75.89044178 18.32024363 75.89044178 18.32024363 79.171875 18.30859375 C80.39390625 18.33373047 81.6159375 18.35886719 82.875 18.38476562 C85.44266073 18.41970859 88.01037389 18.45100401 90.578125 18.47851562 C104.43148881 18.77682861 104.43148881 18.77682861 109.9375 23.75 C111.51796126 27.09685914 111.50485263 29.33981842 111 33 C107.42178526 38.70277974 102.64239521 41.5911267 96.23901367 43.53442383 C93.53120928 44.09747943 90.97655889 44.16301941 88.2109375 44.2109375 C87.10492188 44.23929688 85.99890625 44.26765625 84.859375 44.296875 C82.52881116 44.34912979 80.19805383 44.39334883 77.8671875 44.4296875 C76.76375 44.460625 75.6603125 44.4915625 74.5234375 44.5234375 C73.0062915 44.5531665 73.0062915 44.5531665 71.45849609 44.58349609 C70.64719238 44.72094238 69.83588867 44.85838867 69 45 C66.735616 47.69155201 66.735616 47.69155201 67.25 50.0625 C67.92532718 52.19476975 67.92532718 52.19476975 70 54 C73.82675396 54.30806521 77.66837781 53.99267747 81.5 53.8125 C82.551875 53.78091797 83.60375 53.74933594 84.6875 53.71679688 C95.30590129 53.26341217 104.85088606 51.18090238 113 44 C115.68290459 40.6480419 117.56482576 37.16528549 119.06518555 33.14770508 C121.67469295 28.90235757 124.61560775 27.60088491 129.02734375 25.51171875 C129.81266983 25.1230513 130.59799591 24.73438385 131.40711975 24.3339386 C133.90927539 23.10135183 136.42305003 21.89477301 138.9375 20.6875 C140.62512374 19.85769364 142.31198233 19.02632925 143.99804688 18.19335938 C150.1901984 15.15697242 150.1901984 15.15697242 153.28881836 13.6706543 C153.91042343 13.37120407 154.5320285 13.07175385 155.17247009 12.76322937 C160.55644999 10.51472357 166.70718195 9.7094931 172.22265625 11.87109375 C177.04901774 14.62257086 179.76678623 17.86763969 182 23 C182.48101807 26.68907166 182.48101807 26.68907166 182.45410156 30.67944336 C182.45468567 31.41198334 182.45526978 32.14452332 182.45587158 32.89926147 C182.45310691 35.2966212 182.42209449 37.69270396 182.390625 40.08984375 C182.38315679 41.76135072 182.3774666 43.43286649 182.37347412 45.10438538 C182.35826332 49.48577405 182.31902152 53.8666252 182.2746582 58.24780273 C182.23360664 62.72567475 182.21544208 67.20363433 182.1953125 71.68164062 C182.15252219 80.45467268 182.08432698 89.22726931 182 98 C165.79618142 98.07030219 149.59241284 98.12309151 133.38847828 98.15543652 C125.863507 98.17085879 118.33863088 98.19185871 110.8137207 98.22631836 C104.2495807 98.25636373 97.68550965 98.27560866 91.12130278 98.28226548 C87.65050725 98.28615232 84.1799089 98.29518807 80.70917702 98.31719017 C76.82016121 98.34164042 72.9313325 98.34196037 69.04223633 98.34057617 C67.91078186 98.351362 66.77932739 98.36214783 65.61358643 98.3732605 C55.17186201 98.33331668 45.14391289 96.62872897 35.875 91.6875 C23.95234127 85.39032109 11.97002115 79.20667763 0 73 C0 48.91 0 24.82 0 0 Z " fill="#010101" transform="translate(45,124)"/>
<path d="M0 0 C7.76303187 5.50037685 14.32972096 13.36109802 16 23 C17.03518532 33.89297278 16.57976135 42.77743957 10.24389648 52.13720703 C8.89944085 54.08086481 8.89944085 54.08086481 7.61743164 56.62451172 C5.41172203 60.20323061 3.40679193 63.39594593 -0.88604736 64.47335815 C-6.43818855 65.07604346 -12.0075865 64.63298681 -17.5625 64.25 C-20.0758176 64.09833636 -22.58680923 63.9623655 -25.10276794 63.86322021 C-26.66045006 63.79990761 -28.21730542 63.70617867 -29.77088928 63.57672119 C-34.2975962 63.36933606 -36.53845107 64.03474667 -40.03100586 67.01464844 C-41.03933925 67.99084424 -42.03603946 68.97996346 -43 70 C-48.36634847 60.82842262 -53.35189123 51.55767365 -58 42 C-60.32080544 44.91962687 -62.0481472 47.86213316 -63.69921875 51.203125 C-64.18583984 52.1828125 -64.67246094 53.1625 -65.17382812 54.171875 C-65.67333984 55.18765625 -66.17285156 56.2034375 -66.6875 57.25 C-67.19861328 58.28125 -67.70972656 59.3125 -68.23632812 60.375 C-69.49451825 62.91489782 -70.74892921 65.45658991 -72 68 C-72.99 68 -73.98 68 -75 68 C-76.31860352 66.56298828 -76.31860352 66.56298828 -77.62890625 64.5703125 C-78.10650391 63.85746094 -78.58410156 63.14460938 -79.07617188 62.41015625 C-79.56666016 61.65605469 -80.05714844 60.90195313 -80.5625 60.125 C-81.54125312 58.64729972 -82.5216519 57.17068777 -83.50390625 55.6953125 C-83.93517822 55.03547363 -84.3664502 54.37563477 -84.81079102 53.69580078 C-86.02656503 51.85813602 -86.02656503 51.85813602 -88 50 C-88.48339844 51.40765625 -88.48339844 51.40765625 -88.9765625 52.84375 C-90.66743065 56.86210668 -92.42320524 60.37209127 -96 63 C-102.99293755 65.23993631 -110.95331458 64.88519422 -118 63 C-122.08064689 60.35891465 -123.37056911 57.49379887 -125 53 C-125.48082031 51.88367187 -125.96164063 50.76734375 -126.45703125 49.6171875 C-131.13743961 38.29653036 -133.62992231 25.66421015 -128.8984375 13.87890625 C-125.29371347 6.34033121 -118.99057764 -0.48218744 -111.25 -3.9375 C-100.36781313 -7.49513801 -87.29365839 -7.83342716 -76.8515625 -2.828125 C-72.32497094 0.07385424 -68.50290622 3.60454636 -64.69140625 7.37890625 C-62.23518342 9.7709607 -59.71248454 11.90779323 -57 14 C-56.75507813 13.43152344 -56.51015625 12.86304687 -56.2578125 12.27734375 C-51.47215077 3.61262081 -42.33441467 -2.69480424 -33.125 -5.8125 C-21.17950186 -9.03705165 -10.38522691 -6.31164178 0 0 Z " fill="#010101" transform="translate(199,7)"/>
<path d="M0 0 C0.33 0 0.66 0 1 0 C1 22.11 1 44.22 1 67 C-36.29 67 -73.58 67 -112 67 C-112 66.67 -112 66.34 -112 66 C-111.32839844 65.83886719 -110.65679687 65.67773438 -109.96484375 65.51171875 C-97.96652954 62.24508095 -87.07128048 56.55780053 -76 51 C-75.0207959 50.50902832 -74.0415918 50.01805664 -73.03271484 49.51220703 C-31.13769766 30.5160636 -31.13769766 30.5160636 0 0 Z " fill="#FDFDFD" transform="translate(226,155)"/>
<path d="M0 0 C11.55 0 23.1 0 35 0 C35 28.38 35 56.76 35 86 C23.45 86 11.9 86 0 86 C0 57.62 0 29.24 0 0 Z " fill="#000000" transform="translate(0,118)"/>
<path d="M0 0 C3.32441553 4.25192082 5.69281801 8.85627837 8.1875 13.625 C8.65091797 14.49640625 9.11433594 15.3678125 9.59179688 16.265625 C10.02943359 17.09835938 10.46707031 17.93109375 10.91796875 18.7890625 C11.31781982 19.54912598 11.7176709 20.30918945 12.12963867 21.09228516 C13 23 13 23 13 25 C14.2108454 23.96125445 15.41851795 22.91881031 16.625 21.875 C17.29789062 21.29492188 17.97078125 20.71484375 18.6640625 20.1171875 C20.92836907 18.20416788 20.92836907 18.20416788 22.15966797 16.43212891 C24.48434992 13.50048038 26.05949448 12.1599787 29.82177734 11.52001953 C33.19181589 11.40956818 36.50657143 11.47672831 39.875 11.625 C41.62296875 11.66560547 41.62296875 11.66560547 43.40625 11.70703125 C46.27274172 11.77751875 49.13540655 11.87600539 52 12 C46.6994597 18.48891767 40.80716523 24.34480119 34.87841797 30.25195312 C33.13263921 31.99238419 31.39225463 33.73808003 29.65234375 35.484375 C24.46026177 40.6792841 19.25987265 45.78670878 13.66748047 50.55517578 C11.15283698 52.73404257 8.83646736 55.0685817 6.5 57.4375 C5.6440625 58.30246094 4.788125 59.16742188 3.90625 60.05859375 C3.2771875 60.69925781 2.648125 61.33992188 2 62 C-1.02048183 60.6278896 -3.30243303 59.03506098 -5.76953125 56.82421875 C-6.46643066 56.2007959 -7.16333008 55.57737305 -7.88134766 54.93505859 C-11.1784235 51.92369386 -14.44238851 48.8797361 -17.6875 45.8125 C-22.20349091 41.55811418 -26.72854146 37.3160953 -31.30249023 33.12402344 C-46.91273648 18.81210587 -46.91273648 18.81210587 -51 12 C-44.73 12 -38.46 12 -32 12 C-31.34 10.35 -30.68 8.7 -30 7 C-29.34 6.34 -28.68 5.68 -28 5 C-27.48614746 5.7410498 -27.48614746 5.7410498 -26.96191406 6.49707031 C-25.39547934 8.75100171 -23.82281127 11.00051411 -22.25 13.25 C-21.71117188 14.02730469 -21.17234375 14.80460937 -20.6171875 15.60546875 C-17.97714774 19.37235475 -15.43458898 22.89886626 -12 26 C-11.77570313 25.22398438 -11.55140625 24.44796875 -11.3203125 23.6484375 C-9.554359 18.76855416 -7.22766941 14.24466738 -4.875 9.625 C-4.40707031 8.69816406 -3.93914062 7.77132812 -3.45703125 6.81640625 C-2.30830944 4.54240594 -1.15588119 2.27036718 0 0 Z " fill="#030303" transform="translate(140,67)"/>
</svg>
