<?xml version="1.0" encoding="UTF-8"?>
<svg version="1.1" xmlns="http://www.w3.org/2000/svg" width="1024" height="1024">
<path d="M0 0 C337.92 0 675.84 0 1024 0 C1024 337.92 1024 675.84 1024 1024 C686.08 1024 348.16 1024 0 1024 C0 686.08 0 348.16 0 0 Z " fill="#FDFEFE" transform="translate(0,0)"/>
<path d="M0 0 C0.33 0.66 0.66 1.32 1 2 C0.14075799 3.93256137 -0.81370184 5.82323271 -1.8125 7.6875 C-9.00094271 21.12527769 -8.58291279 35.81390807 -4.3125 50.15625 C-0.29688371 62.40018434 6.99366746 75.66244497 18 83 C18 73.76 18 64.52 18 55 C29.71875 49.140625 29.71875 49.140625 31.84765625 48.08007812 C33.31797836 47.34224861 34.78397078 46.59574376 36.24609375 45.84179688 C41.78935185 43 41.78935185 43 44 43 C44 36.73 44 30.46 44 24 C56.18849638 19.50007645 68.3811223 15.01288197 80.6015625 10.6003418 C82.30255102 9.9850171 84.00273181 9.3674555 85.70214844 8.74780273 C88.21881213 7.83045827 90.73799947 6.92037118 93.2578125 6.01171875 C94.00483429 5.73776779 94.75185608 5.46381683 95.52151489 5.18156433 C100.70515904 3.32427643 105.53428385 2.21460359 111 1 C111.33 15.85 111.66 30.7 112 46 C114.64 46.99 117.28 47.98 120 49 C122.64 45.37 125.28 41.74 128 38 C131.17074287 41.96342858 133.91444281 45.85576026 136.6328125 50.109375 C137.87057377 52.12808669 137.87057377 52.12808669 140 53 C140.58201172 51.20755859 140.58201172 51.20755859 141.17578125 49.37890625 C143.3551494 42.8408018 145.78108393 36.39465925 148.1875 29.9375 C148.65573683 28.67778561 149.12383677 27.41802034 149.59179688 26.15820312 C150.72652433 23.10496739 151.86262449 20.05225007 153 17 C153.66 17 154.32 17 155 17 C155.4021875 18.31484375 155.4021875 18.31484375 155.8125 19.65625 C159.66993443 32.17230414 163.82823782 44.58578113 168 57 C168.99 55.02 169.98 53.04 171 51 C171.7113208 50.98541748 172.4226416 50.97083496 173.15551758 50.95581055 C176.37506332 50.88138994 179.59356518 50.78471 182.8125 50.6875 C183.93205078 50.66494141 185.05160156 50.64238281 186.20507812 50.61914062 C187.27822266 50.58369141 188.35136719 50.54824219 189.45703125 50.51171875 C190.44678955 50.48553467 191.43654785 50.45935059 192.45629883 50.43237305 C195.40203097 49.93166361 196.02529551 49.11844748 198 47 C202.22593351 47 204.29398313 47.38223524 207.5 50.1875 C209 53 209 53 209 56.125 C207.83897552 59.46294538 207.16252443 60.4614746 204 62 C199.89718519 62.41865457 198.48868651 62.32579101 195 60 C192.97078331 59.72598982 192.97078331 59.72598982 190.76953125 59.8046875 C189.68442261 59.81218018 189.68442261 59.81218018 188.57739258 59.81982422 C187.66497803 59.83803223 186.75256348 59.85624023 185.8125 59.875 C181.4503125 59.936875 181.4503125 59.936875 177 60 C173.7 67.92 170.4 75.84 167 84 C164.25974464 80.34632619 163.28101968 78.33420494 162.02734375 74.09765625 C161.68509766 72.96005859 161.34285156 71.82246094 160.99023438 70.65039062 C160.64283203 69.46638672 160.29542969 68.28238281 159.9375 67.0625 C159.24010493 64.71950849 158.54095089 62.37703965 157.83984375 60.03515625 C157.53425537 58.9975415 157.22866699 57.95992676 156.91381836 56.89086914 C156.04497272 54.00360819 156.04497272 54.00360819 154.89282227 51.29858398 C153.891313 48.72018372 153.84331406 46.74200402 154 44 C153.34 44 152.68 44 152 44 C151.938125 44.78375 151.87625 45.5675 151.8125 46.375 C150.7286398 51.21068395 148.59544567 57.40455433 145 61 C143.33382885 61.04063832 141.66611905 61.042721 140 61 C140.07328018 61.5656517 140.14656036 62.13130341 140.22206116 62.71409607 C145.56177079 105.97879151 145.56177079 105.97879151 134.98912048 120.0763092 C127.38290889 129.00150071 118.32321426 136.42629917 108.98193359 143.45726013 C102.91591501 148.17905744 97.38809965 153.46776248 92 158.9375 C91.41605469 159.52595703 90.83210938 160.11441406 90.23046875 160.72070312 C88.81795195 162.14479793 87.4086219 163.5720525 86 165 C83.07518589 163.67881454 81.00475145 162.25304577 78.74330139 159.98381042 C78.12238113 159.3656395 77.50146088 158.74746857 76.86172485 158.11056519 C75.85714737 157.09520187 75.85714737 157.09520187 74.83227539 156.05932617 C74.11795853 155.34530136 73.40364166 154.63127655 72.66767883 153.89561462 C70.30623344 151.53277549 67.95195523 149.16292679 65.59765625 146.79296875 C63.95669019 145.14827081 62.31528071 143.50401518 60.67344666 141.86018372 C56.34893202 137.5280306 52.03045189 133.18991003 47.7131958 128.8505249 C43.3286625 124.44559795 38.93852814 120.04626143 34.54882812 115.64648438 C27.45336298 108.53343334 20.36137114 101.4169412 13.27380371 94.29602051 C9.85341049 90.85977769 6.42952571 87.42712804 3 84 C-9.69282887 71.24191237 -18.0786669 51.90401819 -18.38232422 33.99462891 C-18.32957853 13.77896534 -18.32957853 13.77896534 -14 8 C-9.755114 4.58765254 -4.93409519 2.24277054 0 0 Z " fill="#378EA4" transform="translate(243,458)"/>
<path d="M0 0 C0.35184219 15.51646085 0.61560616 31.03262 0.77718258 46.55214024 C0.85423444 53.76000084 0.95908156 60.96537057 1.1315918 68.17163086 C1.28204776 74.45966702 1.37808743 80.74589874 1.41132742 87.035685 C1.43074284 90.36227674 1.48369899 93.6796616 1.58595085 97.00534248 C2.26170741 119.90935052 2.26170741 119.90935052 -5.46914577 128.25545406 C-8.4999367 131.09773308 -11.61411629 133.58964239 -15 136 C-15.43457299 135.61833144 -15.86914598 135.23666288 -16.31688786 134.84342861 C-20.11765601 131.54000546 -24.01234079 128.51500485 -28.09741211 125.56469727 C-37.81031414 118.04330662 -46.77681244 109.99966644 -48.74540138 97.35756493 C-49.98880144 85.61571125 -49.36703283 73.7878188 -48.71661377 62.02636719 C-48.45712691 56.82553112 -48.345926 51.62150786 -48.22070312 46.41601562 C-47.95549149 36.26916349 -47.53112004 26.13617904 -47 16 C-44.30107247 15.04344197 -41.60180741 14.0878554 -38.90234375 13.1328125 C-38.14546265 12.8644458 -37.38858154 12.5960791 -36.60876465 12.31958008 C-32.27557666 10.78746773 -27.93282201 9.29883911 -23.5625 7.875 C-17.38616376 5.83884519 -11.37510471 3.45154879 -5.40234375 0.8828125 C-3 0 -3 0 0 0 Z " fill="#FCFDFD" transform="translate(344,473)"/>
<path d="M0 0 C3.96 0 7.92 0 12 0 C12 4.29 12 8.58 12 13 C13.31355469 12.26652344 14.62710938 11.53304688 15.98046875 10.77734375 C17.71573749 9.82998082 19.45143733 8.88340723 21.1875 7.9375 C22.05181641 7.45216797 22.91613281 6.96683594 23.80664062 6.46679688 C25.06831055 5.78520508 25.06831055 5.78520508 26.35546875 5.08984375 C27.12528076 4.66566162 27.89509277 4.24147949 28.68823242 3.80444336 C31.59269736 2.79375459 33.09349189 3.05758412 36 4 C37.921875 5.14819336 37.921875 5.14819336 39.75 6.58984375 C40.43473389 7.12222656 41.11946777 7.65460938 41.82495117 8.203125 C42.54271729 8.77546875 43.2604834 9.3478125 44 9.9375 C44.74677002 10.52144531 45.49354004 11.10539062 46.26293945 11.70703125 C47.78544123 12.89760782 49.30539563 14.0914493 50.82275391 15.28857422 C53.92059835 17.72363696 57.05436284 20.11065771 60.1875 22.5 C65.66493723 26.69242902 65.66493723 26.69242902 67.55322266 28.42578125 C70.40068832 31.17679903 70.40068832 31.17679903 74.1015625 32.0390625 C76.48240045 30.73597012 78.33988919 29.17395461 80.375 27.375 C95.23190447 15.13731276 111.2464121 12.64936349 130 14 C134.60719796 14.65072239 138.76240532 16.09009817 143 18 C144.40378906 18.61875 144.40378906 18.61875 145.8359375 19.25 C161.89367368 27.16641896 171.07971598 40.53573907 177 57 C178.01631733 60.32195213 178.12897805 63.35650492 178.1328125 66.82421875 C178.13410156 67.93474609 178.13539063 69.04527344 178.13671875 70.18945312 C178.13285156 71.34380859 178.12898437 72.49816406 178.125 73.6875 C178.12886719 74.85345703 178.13273438 76.01941406 178.13671875 77.22070312 C178.13478516 78.88069336 178.13478516 78.88069336 178.1328125 80.57421875 C178.13168457 81.59088623 178.13055664 82.60755371 178.12939453 83.6550293 C178 86 178 86 177 87 C175.31391034 87.07205511 173.62499341 87.08386068 171.9375 87.0625 C170.55884766 87.04896484 170.55884766 87.04896484 169.15234375 87.03515625 C168.08693359 87.01775391 168.08693359 87.01775391 167 87 C167.02094727 86.37134033 167.04189453 85.74268066 167.06347656 85.0949707 C167.61248118 66.10045324 166.46139914 53.113199 153.625 38.25 C141.46590489 27.82791848 128.94055012 24.09649872 113.05712891 24.82519531 C99.40871732 25.98497014 88.76112406 33.92221898 79.19140625 43.08203125 C77.18091774 44.84165667 75.43898648 45.94995798 73 47 C72.42894531 46.46632813 71.85789062 45.93265625 71.26953125 45.3828125 C65.06130031 39.67795163 58.58969663 34.46633438 51.84619141 29.40917969 C49.81361442 27.85773372 47.81919984 26.26352247 45.82421875 24.6640625 C44.40382182 23.54665126 42.98325143 22.42946047 41.5625 21.3125 C40.90040527 20.77069092 40.23831055 20.22888184 39.55615234 19.6706543 C38.92016113 19.17734619 38.28416992 18.68403809 37.62890625 18.17578125 C36.7946814 17.50929565 36.7946814 17.50929565 35.94360352 16.8293457 C33.00359081 15.57482703 31.05514011 16.20970539 28 17 C25.08784844 18.21980639 25.08784844 18.21980639 22.17578125 19.80859375 C21.07363281 20.38609375 19.97148437 20.96359375 18.8359375 21.55859375 C17.67320312 22.17863281 16.51046875 22.79867188 15.3125 23.4375 C14.10065776 24.07627522 12.88841436 24.71428993 11.67578125 25.3515625 C9.24970876 26.62815521 6.82614181 27.90930981 4.40478516 29.19482422 C1.40340646 30.78611879 -1.60290855 32.36721501 -4.61328125 33.94140625 C-5.44126221 34.37541748 -6.26924316 34.80942871 -7.12231445 35.2565918 C-8.69318397 36.07807639 -10.26591192 36.89601808 -11.84057617 37.71020508 C-14.98132397 39.34563017 -17.98137959 40.98766893 -20.9375 42.9453125 C-29.42343992 48.50774263 -38.22117991 47.54720859 -48 47 C-48 46.34 -48 45.68 -48 45 C-45.27389 43.52561237 -42.54691727 42.0528986 -39.81811523 40.58349609 C-37.46423677 39.31041161 -35.11635779 38.03001908 -32.77368164 36.73681641 C-27.160196 33.6557918 -21.57648602 30.73830795 -15.6328125 28.32421875 C-7.67692131 25.16873875 -7.67692131 25.16873875 -1 20 C1.60155701 13.55971841 0.87782318 6.73877798 0 0 Z " fill="#48AC99" transform="translate(255,414)"/>
<path d="M0 0 C2.60503126 1.04298272 3.86638575 2.09097673 6 4 C7.3191582 4.69429379 8.64649406 5.37530495 10 6 C10.94875 5.195625 11.8975 4.39125 12.875 3.5625 C17.94378279 -0.73494628 22.78813337 -0.48572464 29.28125 -0.3359375 C34.3154302 0.11883088 36.74802891 1.24021653 40 5 C43.76170994 10.68127145 44.56117601 15.60626783 44.390625 22.3125 C44.38496521 23.16682617 44.37930542 24.02115234 44.37347412 24.90136719 C44.3512739 27.60150753 44.3011112 30.30026807 44.25 33 C44.22991374 34.84242861 44.21166671 36.68487824 44.1953125 38.52734375 C44.15146318 43.01875215 44.08255252 47.50914302 44 52 C39.05 52 34.1 52 29 52 C28.98541748 50.95545654 28.97083496 49.91091309 28.95581055 48.8347168 C28.89784449 44.95985655 28.82061226 41.08557849 28.73754883 37.21118164 C28.70429137 35.53419441 28.67626192 33.85709503 28.65356445 32.17993164 C28.62003263 29.76920775 28.56772022 27.35951238 28.51171875 24.94921875 C28.50532883 24.19912033 28.4989389 23.44902191 28.49235535 22.67619324 C28.39317179 18.59831832 28.39317179 18.59831832 26.60058594 15.0324707 C24.50433908 13.68026998 23.04912356 13.53354635 20.5625 13.5 C19.80066406 13.4690625 19.03882813 13.438125 18.25390625 13.40625 C14.83238875 14.30758563 13.89293209 16.06207001 12 19 C11.59022188 21.70002731 11.39538612 24.00983491 11.390625 26.70703125 C11.37408875 27.43242599 11.35755249 28.15782074 11.34051514 28.90519714 C11.29217523 31.20771873 11.27069715 33.50958066 11.25 35.8125 C11.22182832 37.37959023 11.1918992 38.94664992 11.16015625 40.51367188 C11.0831288 44.34274709 11.04248736 48.16976482 11 52 C6.05 52 1.1 52 -4 52 C-4.01458252 50.95545654 -4.02916504 49.91091309 -4.04418945 48.8347168 C-4.10215551 44.95985655 -4.17938774 41.08557849 -4.26245117 37.21118164 C-4.29570863 35.53419441 -4.32373808 33.85709503 -4.34643555 32.17993164 C-4.37996737 29.76920775 -4.43227978 27.35951238 -4.48828125 24.94921875 C-4.49467117 24.19912033 -4.5010611 23.44902191 -4.50764465 22.67619324 C-4.62042113 18.63376389 -4.62042113 18.63376389 -6.28588867 15.03051758 C-9.26269429 13.24087272 -12.70142852 13.19593363 -16 14 C-19.20272767 16.36358832 -19.93657005 17.58458489 -20.54589844 21.57519531 C-20.58697019 22.99240141 -20.60696586 24.41032592 -20.609375 25.828125 C-20.62591125 26.57713074 -20.64244751 27.32613647 -20.65948486 28.09783936 C-20.7079351 30.48197654 -20.72932772 32.86547611 -20.75 35.25 C-20.7781624 36.86982369 -20.80809022 38.48961772 -20.83984375 40.109375 C-20.91700855 44.07320898 -20.95754856 48.03503515 -21 52 C-25.95 52 -30.9 52 -36 52 C-36 35.17 -36 18.34 -36 1 C-31.38 1 -26.76 1 -22 1 C-21.67 2.32 -21.34 3.64 -21 5 C-19.700625 3.7625 -19.700625 3.7625 -18.375 2.5 C-12.90134015 -1.42894602 -6.42671008 -0.85638033 0 0 Z " fill="#20477D" transform="translate(574,488)"/>
<path d="M0 0 C4.95 0 9.9 0 15 0 C22.50475617 16.72847883 29.83833912 33.51998777 37.01000977 50.39379883 C37.47479736 51.48464783 37.47479736 51.48464783 37.94897461 52.59753418 C38.52751728 53.95556133 39.10454336 55.31423609 39.6796875 56.67370605 C40.93311001 59.61398297 42.24549105 62.4818349 43.69702148 65.33081055 C45 68 45 68 45 70 C39.39 70 33.78 70 28 70 C23 58.25 23 58.25 23 56 C12.44 56 1.88 56 -9 56 C-9.33 57.65 -9.66 59.3 -10 61 C-11.21269669 64.06339846 -12.61540165 67.00748098 -14 70 C-18.95 70 -23.9 70 -29 70 C-28.24579585 65.47477511 -27.58798996 62.57776885 -25.85449219 58.52050781 C-25.18809723 56.94792206 -25.18809723 56.94792206 -24.50823975 55.34356689 C-24.02598938 54.22472107 -23.54373901 53.10587524 -23.046875 51.953125 C-22.54963928 50.786745 -22.05240356 49.62036499 -21.5401001 48.41864014 C-20.48733943 45.95283266 -19.43217326 43.48824186 -18.37255859 41.02539062 C-17.02686047 37.89726732 -15.68958535 34.7656355 -14.35532761 31.63261795 C-13.06855403 28.61293629 -11.77639181 25.59556619 -10.484375 22.578125 C-10.01022156 21.4673761 -9.53606812 20.3566272 -9.04754639 19.21221924 C-6.23871182 12.68922939 -3.23651426 6.32211816 0 0 Z " fill="#1C457B" transform="translate(485,470)"/>
<path d="M0 0 C3.66100449 3.66100449 5.34000308 7.29284815 5.52807617 12.44873047 C5.52760614 14.06746053 5.51095098 15.6862444 5.48046875 17.3046875 C5.47622391 18.16184357 5.47197906 19.01899963 5.46760559 19.90213013 C5.45089886 22.62258164 5.41326219 25.34227482 5.375 28.0625 C5.35994278 29.91405175 5.3462562 31.76561519 5.33398438 33.6171875 C5.30102165 38.14091433 5.24929537 42.66407887 5.1875 47.1875 C0.5675 47.1875 -4.0525 47.1875 -8.8125 47.1875 C-9.3075 45.2075 -9.3075 45.2075 -9.8125 43.1875 C-10.369375 43.64125 -10.92625 44.095 -11.5 44.5625 C-17.29974804 48.63799863 -22.92870272 48.82620284 -29.8125 48.1875 C-35.10173987 46.42442004 -37.61258936 43.57594888 -40.8125 39.1875 C-42.60233568 33.81799295 -42.69681724 28.99014667 -40.1875 23.875 C-36.66450156 19.88844913 -33.07013903 17.1921327 -27.8125 16.1875 C-26.29854304 16.10931364 -24.78156493 16.07960091 -23.265625 16.08984375 C-22.42128906 16.09306641 -21.57695313 16.09628906 -20.70703125 16.09960938 C-19.83433594 16.10798828 -18.96164062 16.11636719 -18.0625 16.125 C-17.17433594 16.12951172 -16.28617188 16.13402344 -15.37109375 16.13867188 C-13.18482671 16.150426 -10.99869821 16.16685751 -8.8125 16.1875 C-10.08196514 11.36307816 -10.08196514 11.36307816 -13.8125 8.1875 C-20.96237515 7.28497478 -27.21344485 8.45011416 -33.8125 11.1875 C-34.65098804 9.73212432 -35.48313934 8.27309627 -36.3125 6.8125 C-36.7765625 6.00039063 -37.240625 5.18828125 -37.71875 4.3515625 C-38.8125 2.1875 -38.8125 2.1875 -38.8125 0.1875 C-37.41971983 -0.46489158 -36.02310788 -1.10910552 -34.625 -1.75 C-33.84769531 -2.10964844 -33.07039062 -2.46929687 -32.26953125 -2.83984375 C-21.75724472 -7.00130535 -9.43269866 -6.07885025 0 0 Z " fill="#1F467D" transform="translate(700.8125,492.8125)"/>
<path d="M0 0 C4.47620089 2.11873509 6.59925142 5.82248012 8.66333008 10.09130859 C10.93350319 17.49528458 10.196022 25.41586787 10.0078125 33.08203125 C9.98269044 34.86715616 9.95988419 36.65231524 9.93945312 38.4375 C9.8847847 42.77819843 9.79873198 47.11723186 9.6953125 51.45703125 C4.7453125 51.45703125 -0.2046875 51.45703125 -5.3046875 51.45703125 C-5.35367188 49.12125 -5.40265625 46.78546875 -5.453125 44.37890625 C-5.50716586 42.11175236 -5.56446106 39.84470241 -5.62207031 37.57763672 C-5.66030579 36.0044736 -5.69516816 34.43122467 -5.7265625 32.85791016 C-5.77233172 30.59376402 -5.83030511 28.33020578 -5.890625 26.06640625 C-5.90217621 25.36521667 -5.91372742 24.6640271 -5.92562866 23.94158936 C-6.03428723 20.33024765 -6.21427013 17.4751816 -8.3046875 14.45703125 C-10.57716988 13.32079006 -12.08771514 13.19256282 -14.6171875 13.08203125 C-15.37644531 13.03304688 -16.13570312 12.9840625 -16.91796875 12.93359375 C-20.58145212 13.73704182 -21.96759674 15.57938402 -24.3046875 18.45703125 C-24.81231482 21.22595882 -25.02733021 23.40103437 -25.01171875 26.1640625 C-25.02684006 26.88945724 -25.04196136 27.61485199 -25.05754089 28.36222839 C-25.10031577 30.66498138 -25.10924491 32.96642109 -25.1171875 35.26953125 C-25.14034011 36.83662321 -25.16570706 38.40368411 -25.19335938 39.97070312 C-25.25610944 43.7995947 -25.28852451 47.62767109 -25.3046875 51.45703125 C-29.9246875 51.45703125 -34.5446875 51.45703125 -39.3046875 51.45703125 C-39.3046875 34.62703125 -39.3046875 17.79703125 -39.3046875 0.45703125 C-34.6846875 0.45703125 -30.0646875 0.45703125 -25.3046875 0.45703125 C-24.9746875 2.10703125 -24.6446875 3.75703125 -24.3046875 5.45703125 C-23.3559375 4.65265625 -22.4071875 3.84828125 -21.4296875 3.01953125 C-15.47175501 -2.03175934 -7.45909068 -1.7573112 0 0 Z " fill="#1D447C" transform="translate(760.3046875,488.54296875)"/>
<path d="M0 0 C0.5415802 2.19839478 0.5415802 2.19839478 0.59692383 4.78759766 C0.64004448 6.24524033 0.64004448 6.24524033 0.68403625 7.73233032 C0.6916246 8.78230194 0.69921295 9.83227356 0.70703125 10.9140625 C0.73055916 12.54038101 0.73055916 12.54038101 0.75456238 14.19955444 C0.77921572 16.49769195 0.79277268 18.79597101 0.79614258 21.09423828 C0.81234989 24.59259922 0.89770141 28.0848558 0.98632812 31.58203125 C1.18691921 47.84915576 1.18691921 47.84915576 -1.9050293 53.45214844 C-4.16115605 55.72292688 -6.28738858 57.3231028 -9 59 C-10.49926616 60.31069172 -11.98160021 61.6412993 -13.4375 63 C-15.28978551 64.61654008 -16.8021266 65.9010633 -19 67 C-19 44.23 -19 21.46 -19 -2 C-4 -3 -4 -3 0 0 Z " fill="#F9FBFB" transform="translate(373,516)"/>
<path d="M0 0 C0.66 0 1.32 0 2 0 C2.268125 0.8765625 2.53625 1.753125 2.8125 2.65625 C6.66993443 15.17230414 10.82823782 27.58578113 15 40 C15.99 38.02 16.98 36.04 18 34 C18.7113208 33.98541748 19.4226416 33.97083496 20.15551758 33.95581055 C23.37506332 33.88138994 26.59356518 33.78471 29.8125 33.6875 C30.93205078 33.66494141 32.05160156 33.64238281 33.20507812 33.61914062 C34.27822266 33.58369141 35.35136719 33.54824219 36.45703125 33.51171875 C37.44678955 33.48553467 38.43654785 33.45935059 39.45629883 33.43237305 C42.40203097 32.93166361 43.02529551 32.11844748 45 30 C49.22593351 30 51.29398313 30.38223524 54.5 33.1875 C56 36 56 36 56 39.125 C54.83897552 42.46294538 54.16252443 43.4614746 51 45 C46.89718519 45.41865457 45.48868651 45.32579101 42 43 C39.97078331 42.72598982 39.97078331 42.72598982 37.76953125 42.8046875 C37.04612549 42.80968262 36.32271973 42.81467773 35.57739258 42.81982422 C34.66497803 42.83803223 33.75256348 42.85624023 32.8125 42.875 C29.904375 42.91625 26.99625 42.9575 24 43 C20.7 50.92 17.4 58.84 14 67 C11.25974464 63.34632619 10.28101968 61.33420494 9.02734375 57.09765625 C8.51397461 55.39125977 8.51397461 55.39125977 7.99023438 53.65039062 C7.64283203 52.46638672 7.29542969 51.28238281 6.9375 50.0625 C6.24010493 47.71950849 5.54095089 45.37703965 4.83984375 43.03515625 C4.53425537 41.9975415 4.22866699 40.95992676 3.91381836 39.89086914 C3.04497272 37.00360819 3.04497272 37.00360819 1.89282227 34.29858398 C0.891313 31.72018372 0.84331406 29.74200402 1 27 C0.34 27 -0.32 27 -1 27 C-1.0825 27.804375 -1.165 28.60875 -1.25 29.4375 C-2.20196675 33.95934205 -4.01580179 37.84702701 -6 42 C-9 38.25 -9 38.25 -9 36 C-10.32 36 -11.64 36 -13 36 C-10.47813736 28.23333334 -7.66385351 20.58856414 -4.8125 12.9375 C-4.34426317 11.67778561 -3.87616323 10.41802034 -3.40820312 9.15820312 C-2.27347567 6.10496739 -1.13737551 3.05225007 0 0 Z " fill="#439EA3" transform="translate(396,475)"/>
<path d="M0 0 C4.95 0 9.9 0 15 0 C15 16.83 15 33.66 15 51 C10.05 51 5.1 51 0 51 C0 34.17 0 17.34 0 0 Z " fill="#23497E" transform="translate(784,489)"/>
<path d="M0 0 C4.95 0 9.9 0 15 0 C15 16.83 15 33.66 15 51 C10.05 51 5.1 51 0 51 C0 34.17 0 17.34 0 0 Z " fill="#254A7E" transform="translate(633,489)"/>
<path d="M0 0 C0 17.82 0 35.64 0 54 C-2 54 -2 54 -4.0625 52.0625 C-4.49385254 51.59134766 -4.92520508 51.12019531 -5.36962891 50.63476562 C-7.01747371 48.90057881 -7.01747371 48.90057881 -9.23583984 47.34960938 C-13.44339729 43.96040099 -15.72080467 41.49609545 -16.73120117 36.08178711 C-16.99518788 31.52398163 -16.78754353 26.99262636 -16.5625 22.4375 C-16.51728202 20.84060825 -16.47623026 19.24359281 -16.43945312 17.64648438 C-16.34099813 13.76123131 -16.18616028 9.88199877 -16 6 C-13.89915791 4.99303432 -11.79420511 3.9946411 -9.6875 3 C-8.51574219 2.443125 -7.34398437 1.88625 -6.13671875 1.3125 C-3 0 -3 0 0 0 Z " fill="#F5F9F9" transform="translate(287,513)"/>
<path d="M0 0 C0.33 0.66 0.66 1.32 1 2 C0.14075799 3.93256137 -0.81370184 5.82323271 -1.8125 7.6875 C-5.55606755 14.68557045 -7.39265698 20.98349394 -7.375 28.9375 C-7.37411377 29.6689624 -7.37322754 30.4004248 -7.37231445 31.15405273 C-7.17077337 40.68991282 -4.79384676 49.90201045 -1.125 58.6875 C0 62 0 62 -0.5 64.75 C-2.29650205 67.44475308 -4.45031172 69.02978633 -7 71 C-10.97920117 62.82355924 -14.80390962 54.86882653 -17 46 C-17.17055908 45.39631592 -17.34111816 44.79263184 -17.5168457 44.1706543 C-19.72607926 34.24529019 -19.51425431 19.86976102 -15.8203125 10.4296875 C-11.91777421 5.22072008 -5.80565918 2.63893599 0 0 Z " fill="#3E98A2" transform="translate(243,458)"/>
<path d="M0 0 C2.97 0 5.94 0 9 0 C9 3.3 9 6.6 9 10 C12.3 10 15.6 10 19 10 C19 12.97 19 15.94 19 19 C15.7 19 12.4 19 9 19 C9 21.97 9 24.94 9 28 C6.03 28 3.06 28 0 28 C0 25.03 0 22.06 0 19 C-3.3 19 -6.6 19 -10 19 C-10 15.7 -10 12.4 -10 9 C-6.7 9 -3.4 9 0 9 C0 6.03 0 3.06 0 0 Z " fill="#41A0A8" transform="translate(316,494)"/>
<path d="M0 0 C2.69990662 1.79993774 4.5418865 3.083773 6 6 C6.0716735 8.55157655 6.09308442 11.07472971 6.0625 13.625 C6.05798828 14.33140625 6.05347656 15.0378125 6.04882812 15.765625 C6.03703875 17.51045275 6.01910324 19.255237 6 21 C5.21625 20.814375 4.4325 20.62875 3.625 20.4375 C1.02910225 19.74037734 1.02910225 19.74037734 -1 21 C-8.26788686 21.57681642 -8.26788686 21.57681642 -11.0625 19.375 C-12.32868536 16.16733041 -11.99549067 14.2708979 -11 11 C-7.68629 8.79086 -6.6553979 8.77518447 -2.8125 8.875 C-1.91144531 8.89304687 -1.01039063 8.91109375 -0.08203125 8.9296875 C0.60503906 8.95289063 1.29210937 8.97609375 2 9 C1.34 7.68 0.68 6.36 0 5 C-3.3 5 -6.6 5 -10 5 C-10 4.01 -10 3.02 -10 2 C-6.58442978 -0.10188936 -3.97827 -0.4871351 0 0 Z " fill="#4F8BAA" transform="translate(610,563)"/>
<path d="M0 0 C2.01202592 0 4.02582672 -0.00133843 6.03515625 -0.10546875 C11.54975379 -0.32860275 11.54975379 -0.32860275 13.7277832 1.26098633 C15.271869 3.37162213 15.35140169 4.42119163 15.29296875 7.01171875 C15.28330078 7.76904297 15.27363281 8.52636719 15.26367188 9.30664062 C15.23853516 10.09232422 15.21339844 10.87800781 15.1875 11.6875 C15.16719727 12.88342773 15.16719727 12.88342773 15.14648438 14.10351562 C15.11117089 16.06929967 15.05736447 18.03473582 15 20 C14.01 20 13.02 20 12 20 C11.93941406 18.92878906 11.87882813 17.85757813 11.81640625 16.75390625 C11.73201463 15.35675609 11.64736594 13.95962143 11.5625 12.5625 C11.52318359 11.85544922 11.48386719 11.14839844 11.44335938 10.41992188 C11.52375562 6.91309581 11.52375562 6.91309581 10 4 C7.54190002 3.7499227 7.54190002 3.7499227 5 4 C2.14206684 6.85793316 2.59200059 9.14665584 2.375 13.125 C2.30023437 14.40632812 2.22546875 15.68765625 2.1484375 17.0078125 C2.09945312 17.99523437 2.05046875 18.98265625 2 20 C1.01 20 0.02 20 -1 20 C-1.33 14.72 -1.66 9.44 -2 4 C-3.98 4 -5.96 4 -8 4 C-9.99616554 5.99616554 -9.40983427 9.81701963 -9.5625 12.5625 C-9.60568359 13.27341797 -9.64886719 13.98433594 -9.69335938 14.71679688 C-9.79971777 16.47761912 -9.90038846 18.2387832 -10 20 C-11.32 20 -12.64 20 -14 20 C-14 13.4 -14 6.8 -14 0 C-13.01 0 -12.02 0 -11 0 C-11 0.66 -11 1.32 -11 2 C-10.29875 1.484375 -9.5975 0.96875 -8.875 0.4375 C-5.3357082 -1.3321459 -3.78095264 -0.88490381 0 0 Z " fill="#4884A7" transform="translate(785,564)"/>
<path d="M0 0 C0.86367188 -0.03738281 1.72734375 -0.07476563 2.6171875 -0.11328125 C5.125 0.3125 5.125 0.3125 7.4296875 1.81640625 C9.80522039 5.31402265 9.56172772 8.49758117 9.375 12.5625 C9.35695313 13.30757812 9.33890625 14.05265625 9.3203125 14.8203125 C9.27335649 16.65159701 9.20161652 18.48221649 9.125 20.3125 C6.85475032 20.39347324 4.58367925 20.45167704 2.3125 20.5 C0.41564453 20.55220703 0.41564453 20.55220703 -1.51953125 20.60546875 C-4.875 20.3125 -4.875 20.3125 -6.80078125 19.0234375 C-8.60954656 16.14256767 -8.23345488 13.59833639 -7.875 10.3125 C-4.56129 8.10336 -3.5303979 8.08768447 0.3125 8.1875 C1.21355469 8.20554687 2.11460937 8.22359375 3.04296875 8.2421875 C3.73003906 8.26539063 4.41710937 8.28859375 5.125 8.3125 C4.465 6.9925 3.805 5.6725 3.125 4.3125 C-0.175 4.3125 -3.475 4.3125 -6.875 4.3125 C-6.875 3.3225 -6.875 2.3325 -6.875 1.3125 C-4.44538821 0.0976941 -2.71115884 0.07642733 0 0 Z " fill="#4B8AAB" transform="translate(516.875,563.6875)"/>
<path d="M0 0 C0.66 0 1.32 0 2 0 C3.5056651 3.62267294 5.00356546 7.24850549 6.5 10.875 C6.92925781 11.90753906 7.35851562 12.94007813 7.80078125 14.00390625 C8.40986328 15.48310547 8.40986328 15.48310547 9.03125 16.9921875 C9.40830078 17.90339355 9.78535156 18.81459961 10.17382812 19.75341797 C11 22 11 22 11 24 C4.4 24 -2.2 24 -9 24 C-7.81155833 20.434675 -6.63767811 16.96295517 -5.2734375 13.4765625 C-4.809375 12.28740234 -4.809375 12.28740234 -4.3359375 11.07421875 C-3.86027344 9.86185547 -3.86027344 9.86185547 -3.375 8.625 C-3.05015625 7.79355469 -2.7253125 6.96210938 -2.390625 6.10546875 C-1.59507268 4.06979076 -0.79816631 2.03465416 0 0 Z " fill="#E6ECF0" transform="translate(491,489)"/>
<path d="M0 0 C3.0625 2.125 3.0625 2.125 5 5 C5 6.98 5 8.96 5 11 C0.05 11 -4.9 11 -10 11 C-9.67 12.65 -9.34 14.3 -9 16 C-8.39671875 16 -7.7934375 16 -7.171875 16 C-3.44791667 16 0.27604167 16 4 16 C3 19 3 19 1 20 C-7.69379015 20.92390453 -7.69379015 20.92390453 -11.5625 18.1875 C-14.21459402 14.15170476 -14.32667307 10.73675955 -14 6 C-10.8933462 -0.49573066 -6.80009492 -1.03173854 0 0 Z " fill="#4D82A0" transform="translate(761,564)"/>
<path d="M0 0 C3.0625 2.125 3.0625 2.125 5 5 C5 6.98 5 8.96 5 11 C-0.28 11 -5.56 11 -11 11 C-10.01 12.65 -9.02 14.3 -8 16 C-5.1165291 16.2288469 -2.82188833 16.24373316 0 16 C1.32 16 2.64 16 4 16 C4 16.66 4 17.32 4 18 C-0.30456676 20.42070875 -4.14471797 20.9589614 -9 20 C-12.32983304 17.34972472 -13.60097417 15.87970848 -14.47265625 11.7734375 C-14.74269905 7.63278118 -14.31062537 5.4909885 -12.0625 1.9375 C-7.95537873 -0.66088284 -4.73682191 -1.06214451 0 0 Z " fill="#467FA2" transform="translate(500,564)"/>
<path d="M0 0 C2.48114717 0.63711193 3.51024785 1.35902613 5.22265625 3.2421875 C7.16015625 6.5546875 7.16015625 6.5546875 7.16015625 11.5546875 C1.88015625 11.5546875 -3.39984375 11.5546875 -8.83984375 11.5546875 C-7.33984375 15.5546875 -7.33984375 15.5546875 -4.83984375 16.5546875 C-1.46161959 16.69844172 0.9340658 16.63005098 4.16015625 15.5546875 C4.16015625 16.8746875 4.16015625 18.1946875 4.16015625 19.5546875 C0.6517175 21.30890687 -3.0204887 21.22636718 -6.83984375 20.5546875 C-10.16967679 17.90441222 -11.44081792 16.43439598 -12.3125 12.328125 C-12.5825428 8.18746868 -12.15046912 6.045676 -9.90234375 2.4921875 C-6.34941441 0.24441587 -4.14773919 -0.23543094 0 0 Z " fill="#528AAC" transform="translate(646.83984375,563.4453125)"/>
<path d="M0 0 C2.8672886 0.55947095 4.32176214 1.43141373 6.40234375 3.46875 C6.40234375 4.45875 6.40234375 5.44875 6.40234375 6.46875 C5.55671875 6.13875 4.71109375 5.80875 3.83984375 5.46875 C0.14836806 4.39486616 -2.77310306 4.1745536 -6.59765625 4.46875 C-8.82646323 6.23265368 -8.82646323 6.23265368 -8.625 8.46484375 C-7.71018478 10.78740481 -7.71018478 10.78740481 -4.7265625 11.62890625 C-2.96119141 12.07556641 -2.96119141 12.07556641 -1.16015625 12.53125 C5.19413907 14.15644299 5.19413907 14.15644299 7.40234375 17.46875 C7.91685799 21.51136188 8.05719559 23.58808718 5.58984375 26.90625 C0.89224808 29.20899298 -3.46499871 29.39986179 -8.59765625 28.46875 C-10.94947321 27.01334293 -11.94486622 25.74846039 -13.59765625 23.46875 C-12.60765625 22.80875 -11.61765625 22.14875 -10.59765625 21.46875 C-10.08203125 21.96375 -9.56640625 22.45875 -9.03515625 22.96875 C-5.75906827 24.98480414 -3.37790671 24.74876855 0.40234375 24.46875 C1.06234375 24.13875 1.72234375 23.80875 2.40234375 23.46875 C2.40234375 21.81875 2.40234375 20.16875 2.40234375 18.46875 C1.15517578 18.08783203 1.15517578 18.08783203 -0.1171875 17.69921875 C-1.20386719 17.35503906 -2.29054688 17.01085937 -3.41015625 16.65625 C-5.02857422 16.15158203 -5.02857422 16.15158203 -6.6796875 15.63671875 C-9.44390781 14.53029054 -10.84559602 13.83074246 -12.59765625 11.46875 C-13.28075094 7.54095555 -12.91128307 5.94964446 -10.72265625 2.59375 C-6.89665433 -0.0079313 -4.51783046 -0.05568974 0 0 Z " fill="#4A86A7" transform="translate(681.59765625,555.53125)"/>
<path d="M0 0 C5.28 0 10.56 0 16 0 C16 4.62 16 9.24 16 14 C10.72 14 5.44 14 0 14 C0 9.38 0 4.76 0 0 Z " fill="#2E5385" transform="translate(784,468)"/>
<path d="M0 0 C0.99 0 1.98 0 3 0 C3 3.96 3 7.92 3 12 C8.28 12 13.56 12 19 12 C19 8.04 19 4.08 19 0 C19.99 0 20.98 0 22 0 C22 9.24 22 18.48 22 28 C21.01 28 20.02 28 19 28 C19 23.71 19 19.42 19 15 C13.72 15 8.44 15 3 15 C3 19.29 3 23.58 3 28 C2.01 28 1.02 28 0 28 C0 18.76 0 9.52 0 0 Z " fill="#33779D" transform="translate(458,556)"/>
<path d="M0 0 C1.32 0 2.64 0 4 0 C4.33 2.97 4.66 5.94 5 9 C5.66 8.67 6.32 8.34 7 8 C13.37526008 7.53634472 13.37526008 7.53634472 15.7043457 9.26489258 C17.27897482 11.37359601 17.35173552 12.40639214 17.29296875 15.01171875 C17.28330078 15.76904297 17.27363281 16.52636719 17.26367188 17.30664062 C17.23853516 18.09232422 17.21339844 18.87800781 17.1875 19.6875 C17.16719727 20.88342773 17.16719727 20.88342773 17.14648438 22.10351562 C17.11117089 24.06929967 17.05736447 26.03473582 17 28 C16.01 28 15.02 28 14 28 C14 22.72 14 17.44 14 12 C7.67082039 11.47825081 7.67082039 11.47825081 5 13 C4.68758629 15.54941373 4.48696579 18.00361513 4.375 20.5625 C4.33632813 21.27341797 4.29765625 21.98433594 4.2578125 22.71679688 C4.16328217 24.47742425 4.08054183 26.23867728 4 28 C2.68 28 1.36 28 0 28 C0 18.76 0 9.52 0 0 Z " fill="#548CA6" transform="translate(555,556)"/>
<path d="M0 0 C4.95 0 9.9 0 15 0 C15 4.29 15 8.58 15 13 C10.05 13 5.1 13 0 13 C0 8.71 0 4.42 0 0 Z " fill="#1F457C" transform="translate(633,469)"/>
<path d="M0 0 C1.26328125 0.02707031 2.5265625 0.05414062 3.828125 0.08203125 C4.79234375 0.11683594 5.7565625 0.15164063 6.75 0.1875 C6.984375 6.890625 6.984375 6.890625 4.875 9.5625 C1.63900745 12.03708254 -0.22106482 12.34571995 -4.25 12.375 C-5.5803125 12.39626953 -5.5803125 12.39626953 -6.9375 12.41796875 C-9.25 12.1875 -9.25 12.1875 -11.25 10.1875 C-11.625 6.75 -11.625 6.75 -11.25 3.1875 C-7.92993598 -0.42988318 -4.70151516 -0.13059764 0 0 Z " fill="#F8FAFB" transform="translate(685.25,517.8125)"/>
<path d="M0 0 C1.828125 0.16015625 1.828125 0.16015625 4 1 C5.484375 3.43359375 5.484375 3.43359375 6.75 6.4375 C7.39195312 7.92056641 7.39195312 7.92056641 8.046875 9.43359375 C9 12 9 12 9 14 C9.66 14 10.32 14 11 14 C11.0825 13.360625 11.165 12.72125 11.25 12.0625 C12.29520372 7.79458483 14.14091826 3.96892333 16 0 C16.99 0 17.98 0 19 0 C18.04790407 5.3319736 16.17197292 10.10439155 14.1875 15.125 C13.84396484 16.03121094 13.50042969 16.93742188 13.14648438 17.87109375 C12.80294922 18.74121094 12.45941406 19.61132812 12.10546875 20.5078125 C11.79762451 21.29816895 11.48978027 22.08852539 11.17260742 22.90283203 C9.78386564 25.38654886 8.42541076 26.53668529 6 28 C3.25 28.1875 3.25 28.1875 1 28 C1 27.01 1 26.02 1 25 C1.804375 24.773125 2.60875 24.54625 3.4375 24.3125 C6.14661021 23.27121804 6.14661021 23.27121804 6.875 20.9296875 C7.05721955 16.65891683 5.38669681 13.60861577 3.5625 9.8125 C0 2.19214286 0 2.19214286 0 0 Z " fill="#367499" transform="translate(692,564)"/>
<path d="M0 0 C8.61953047 4.70156207 15.17709958 12.07837594 22 19 C23.66526198 20.66807017 25.33211989 22.33454766 27 24 C28.25659564 25.25642519 29.5130987 26.51294297 30.76953125 27.76953125 C31.43017578 28.43017578 32.09082031 29.09082031 32.77148438 29.77148438 C35.84765625 32.84765625 38.92382812 35.92382812 42 39 C41.34 39.99 40.68 40.98 40 42 C34.77879175 36.82506492 29.56294591 31.64478951 24.35394287 26.45756721 C21.93520784 24.0492841 19.51464152 21.64290257 17.08984375 19.24072266 C14.30439514 16.48109509 11.52699084 13.713452 8.75 10.9453125 C7.43757324 9.6483696 7.43757324 9.6483696 6.09863281 8.32522583 C5.29780273 7.52454681 4.49697266 6.7238678 3.671875 5.89892578 C2.9612793 5.1927713 2.25068359 4.48661682 1.51855469 3.75906372 C0 2 0 2 0 0 Z " fill="#327FA9" transform="translate(273,567)"/>
<path d="M0 0 C0.7734375 0.00386719 1.546875 0.00773438 2.34375 0.01171875 C4.5 0.3125 4.5 0.3125 7.5 2.3125 C7.5 2.9725 7.5 3.6325 7.5 4.3125 C4.2 3.9825 0.9 3.6525 -2.5 3.3125 C-2.5 4.6325 -2.5 5.9525 -2.5 7.3125 C-1.86191406 7.51746094 -1.22382812 7.72242188 -0.56640625 7.93359375 C0.25988281 8.20300781 1.08617187 8.47242188 1.9375 8.75 C2.76121094 9.01683594 3.58492187 9.28367187 4.43359375 9.55859375 C6.5 10.3125 6.5 10.3125 7.5 11.3125 C7.96665026 16.67897797 7.96665026 16.67897797 6.265625 18.98828125 C4.03093461 20.66429904 2.76810676 20.68497565 0 20.625 C-0.7734375 20.62113281 -1.546875 20.61726562 -2.34375 20.61328125 C-4.5 20.3125 -4.5 20.3125 -7.5 18.3125 C-7.005 16.8275 -7.005 16.8275 -6.5 15.3125 C-5.51 15.6425 -4.52 15.9725 -3.5 16.3125 C-1.16700175 16.35204234 1.16708189 16.35651732 3.5 16.3125 C3.5 15.3225 3.5 14.3325 3.5 13.3125 C2.87351562 13.11914062 2.24703125 12.92578125 1.6015625 12.7265625 C0.78429687 12.46617187 -0.03296875 12.20578125 -0.875 11.9375 C-2.09316406 11.55464844 -2.09316406 11.55464844 -3.3359375 11.1640625 C-5.5 10.3125 -5.5 10.3125 -7.5 8.3125 C-7.8597605 5.50636806 -7.9961552 3.96986651 -6.26171875 1.671875 C-4.0302537 -0.04996499 -2.79080064 -0.06046735 0 0 Z " fill="#4584A5" transform="translate(721.5,563.6875)"/>
<path d="M0 0 C0.78246094 -0.01417969 1.56492187 -0.02835938 2.37109375 -0.04296875 C4.5625 0.1875 4.5625 0.1875 7.5625 2.1875 C7.2325 3.1775 6.9025 4.1675 6.5625 5.1875 C6.005625 4.8575 5.44875 4.5275 4.875 4.1875 C2.17391671 3.01946398 0.47712786 2.81382976 -2.4375 3.1875 C-4.39375978 4.14298981 -4.39375978 4.14298981 -5.4375 6.1875 C-5.82741688 10.55456908 -5.90074069 12.49263897 -3.4375 16.1875 C-0.02107241 16.43765873 -0.02107241 16.43765873 3.5625 16.1875 C4.8825 16.1875 6.2025 16.1875 7.5625 16.1875 C6.5625 19.1875 6.5625 19.1875 4.5625 20.1875 C-0.14917386 20.83547087 -3.41513536 20.86907643 -7.4375 18.1875 C-9.89392501 14.50286248 -10.90518671 11.62186288 -10.4375 7.1875 C-7.63519841 1.87279009 -5.91173116 0.04853638 0 0 Z " fill="#45809E" transform="translate(587.4375,563.8125)"/>
<path d="M0 0 C0.99 0 1.98 0 3 0 C3 1.98 3 3.96 3 6 C4.65 6 6.3 6 8 6 C8 6.99 8 7.98 8 9 C6.35 9 4.7 9 3 9 C3.33 13.29 3.66 17.58 4 22 C5.32 22.33 6.64 22.66 8 23 C8 23.99 8 24.98 8 26 C5.125 26.125 5.125 26.125 2 26 C0 24 0 24 -0.1953125 20.5234375 C-0.18201493 19.14049032 -0.15816232 17.75761346 -0.125 16.375 C-0.11597656 15.66859375 -0.10695313 14.9621875 -0.09765625 14.234375 C-0.07407603 12.48943902 -0.03820461 10.74467705 0 9 C-1.32 9 -2.64 9 -4 9 C-4 8.01 -4 7.02 -4 6 C-2.68 6 -1.36 6 0 6 C0 4.02 0 2.04 0 0 Z " fill="#4083A1" transform="translate(736,558)"/>
<path d="M0 0 C0.99 0 1.98 0 3 0 C3 1.65 3 3.3 3 5 C4.65 5 6.3 5 8 5 C8 5.99 8 6.98 8 8 C6.35 8 4.7 8 3 8 C3.33 12.29 3.66 16.58 4 21 C5.32 21.33 6.64 21.66 8 22 C8 22.99 8 23.98 8 25 C5.125 25.125 5.125 25.125 2 25 C0 23 0 23 -0.1953125 19.5234375 C-0.18201493 18.14049032 -0.15816232 16.75761346 -0.125 15.375 C-0.11597656 14.66859375 -0.10695313 13.9621875 -0.09765625 13.234375 C-0.07407603 11.48943902 -0.03820461 9.74467705 0 8 C-1.32 8 -2.64 8 -4 8 C-4 7.01 -4 6.02 -4 5 C-2.68 5 -1.36 5 0 5 C0 3.35 0 1.7 0 0 Z " fill="#317594" transform="translate(543,559)"/>
<path d="M0 0 C0.99 0 1.98 0 3 0 C2.67 1.65 2.34 3.3 2 5 C5.3 5 8.6 5 12 5 C12 5.66 12 6.32 12 7 C8.7 7 5.4 7 2 7 C3.5 11 3.5 11 6 12 C9.37822416 12.14375422 11.77390955 12.07536348 15 11 C15 12.32 15 13.64 15 15 C11.49156125 16.75421937 7.81935505 16.67167968 4 16 C0.61712747 13.30750962 -0.73504669 11.88896124 -1.33203125 7.6328125 C-1.37178236 5.37061271 -1.32985098 3.23827454 -1 1 C-0.67 0.67 -0.34 0.34 0 0 Z " fill="#397A9F" transform="translate(636,568)"/>
<path d="M0 0 C1.32 0 2.64 0 4 0 C4 0.66 4 1.32 4 2 C4.99 1.34 5.98 0.68 7 0 C8.32 0 9.64 0 11 0 C11 0.99 11 1.98 11 3 C9.7934375 3.4640625 9.7934375 3.4640625 8.5625 3.9375 C6.10919595 4.76335345 6.10919595 4.76335345 5 6 C4.76472227 8.34987262 4.58613583 10.70556039 4.4375 13.0625 C4.35371094 14.35285156 4.26992188 15.64320313 4.18359375 16.97265625 C4.12300781 17.97167969 4.06242188 18.97070312 4 20 C2.68 20 1.36 20 0 20 C0 13.4 0 6.8 0 0 Z " fill="#528BA8" transform="translate(621,564)"/>
<path d="M0 0 C1.6498275 0.42218816 3.29483665 0.86324425 4.9375 1.3125 C6.31228516 1.67794922 6.31228516 1.67794922 7.71484375 2.05078125 C8.46894531 2.36402344 9.22304688 2.67726563 10 3 C10.33 3.99 10.66 4.98 11 6 C12.32 7.32 13.64 8.64 15 10 C9.72 10 4.44 10 -1 10 C-1 3 -1 3 0 0 Z " fill="#61A9AB" transform="translate(354,504)"/>
<path d="M0 0 C0.33 0 0.66 0 1 0 C1.33 2.97 1.66 5.94 2 9 C2.66 8.67 3.32 8.34 4 8 C10.37526008 7.53634472 10.37526008 7.53634472 12.7043457 9.26489258 C14.27897482 11.37359601 14.35173552 12.40639214 14.29296875 15.01171875 C14.28330078 15.76904297 14.27363281 16.52636719 14.26367188 17.30664062 C14.23853516 18.09232422 14.21339844 18.87800781 14.1875 19.6875 C14.17396484 20.48478516 14.16042969 21.28207031 14.14648438 22.10351562 C14.11117089 24.06929967 14.05736447 26.03473582 14 28 C13.01 28 12.02 28 11 28 C11 22.72 11 17.44 11 12 C4.5797509 11.63106761 4.5797509 11.63106761 1 13 C0 12 0 12 -0.09765625 9.27734375 C-0.08605469 8.17519531 -0.07445312 7.07304688 -0.0625 5.9375 C-0.05347656 4.83277344 -0.04445313 3.72804688 -0.03515625 2.58984375 C-0.02355469 1.73519531 -0.01195312 0.88054688 0 0 Z " fill="#3F7B9D" transform="translate(558,556)"/>
<path d="M0 0 C0.99 0.33 1.98 0.66 3 1 C5.05893621 1.22325814 7.12233653 1.40705759 9.1875 1.5625 C10.27417969 1.64628906 11.36085938 1.73007812 12.48046875 1.81640625 C13.72763672 1.90728516 13.72763672 1.90728516 15 2 C15 2.66 15 3.32 15 4 C11.04 4 7.08 4 3 4 C3.99 5.65 4.98 7.3 6 9 C8.8834709 9.2288469 11.17811167 9.24373316 14 9 C15.32 9 16.64 9 18 9 C18 9.66 18 10.32 18 11 C13.70389091 13.41595251 9.84637076 13.97444821 5 13 C1.9375 10.4375 1.9375 10.4375 0 7 C-0.3125 3.125 -0.3125 3.125 0 0 Z " fill="#36759B" transform="translate(486,571)"/>
<path d="M0 0 C2.8672886 0.55947095 4.32176214 1.43141373 6.40234375 3.46875 C6.40234375 4.45875 6.40234375 5.44875 6.40234375 6.46875 C5.55671875 6.13875 4.71109375 5.80875 3.83984375 5.46875 C0.14836806 4.39486616 -2.77310306 4.1745536 -6.59765625 4.46875 C-9.00887484 6.42508975 -9.00887484 6.42508975 -8.72265625 10.09375 C-8.68140625 11.2075 -8.64015625 12.32125 -8.59765625 13.46875 C-9.91765625 12.80875 -11.23765625 12.14875 -12.59765625 11.46875 C-13.0458932 7.61391221 -12.87046406 5.88705531 -10.72265625 2.59375 C-6.89665433 -0.0079313 -4.51783046 -0.05568974 0 0 Z " fill="#3E799E" transform="translate(681.59765625,555.53125)"/>
<path d="M0 0 C0.99 0 1.98 0 3 0 C3 9.24 3 18.48 3 28 C2.01 28 1.02 28 0 28 C0 18.76 0 9.52 0 0 Z " fill="#377593" transform="translate(532,556)"/>
<path d="M0 0 C2.05279359 4.10558718 2.2216942 5.80206685 2.125 10.25 C2.10695313 11.32765625 2.08890625 12.4053125 2.0703125 13.515625 C2.04710937 14.33546875 2.02390625 15.1553125 2 16 C1.01 16 0.02 16 -1 16 C-1 11.71 -1 7.42 -1 3 C-6.28 3 -11.56 3 -17 3 C-17 2.34 -17 1.68 -17 1 C-8.585 0.505 -8.585 0.505 0 0 Z " fill="#3077A2" transform="translate(478,568)"/>
<path d="M0 0 C5.28 0 10.56 0 16 0 C15.01 0.495 15.01 0.495 14 1 C14.33 1.99 14.66 2.98 15 4 C11.18538362 5.79511359 8.21411291 6.53797186 4 6 C1.625 4.125 1.625 4.125 0 2 C0 1.34 0 0.68 0 0 Z " fill="#E9F2F5" transform="translate(638,575)"/>
<path d="M0 0 C1.8871875 0.061875 1.8871875 0.061875 3.8125 0.125 C3.8125 0.785 3.8125 1.445 3.8125 2.125 C2.843125 2.3725 1.87375 2.62 0.875 2.875 C-0.135625 3.2875 -1.14625 3.7 -2.1875 4.125 C-3.15627057 6.15743548 -3.15627057 6.15743548 -3.1875 8.125 C-2.445 8.269375 -1.7025 8.41375 -0.9375 8.5625 C1.33277739 9.02687492 3.57009479 9.54363569 5.8125 10.125 C3.8125 12.125 3.8125 12.125 -0.125 12.4375 C-2.62541894 12.35581662 -3.95955801 12.24609418 -6.1875 11.0625 C-7.76725504 8.00172462 -7.55500064 5.49375585 -7.1875 2.125 C-4.09861478 0.06574319 -3.47814073 -0.1140374 0 0 Z " fill="#387CA1" transform="translate(516.1875,571.875)"/>
<path d="M0 0 C4.95 0 9.9 0 15 0 C13.515 1.485 13.515 1.485 12 3 C11.01 4.485 11.01 4.485 10 6 C3.97091723 6.65771812 3.97091723 6.65771812 1.0625 4.6875 C0 3 0 3 0 0 Z " fill="#ECF4F6" transform="translate(751,575)"/>
<path d="M0 0 C0.33 1.65 0.66 3.3 1 5 C-0.6875 6.5625 -0.6875 6.5625 -3 8 C-5.75 7.6875 -5.75 7.6875 -8 7 C-8.6875 5.1875 -8.6875 5.1875 -9 3 C-6.75886401 -0.69128281 -4.00118708 -0.26674581 0 0 Z " fill="#E8F1F5" transform="translate(521,574)"/>
<path d="M0 0 C0.625 2.375 0.625 2.375 1 5 C-1 7 -1 7 -4.625 7.125 C-5.73875 7.08375 -6.8525 7.0425 -8 7 C-8.33 5.35 -8.66 3.7 -9 2 C-5.5647952 -0.29013653 -4.014669 -0.17842973 0 0 Z " fill="#EFF4F5" transform="translate(611,574)"/>
<path d="M0 0 C0.99 0 1.98 0 3 0 C2.31583566 4.17576168 0.98634991 7.88080407 -0.5625 11.8125 C-1.01753906 12.97394531 -1.47257813 14.13539063 -1.94140625 15.33203125 C-2.29074219 16.21246094 -2.64007812 17.09289062 -3 18 C-4.32 17.34 -5.64 16.68 -7 16 C-7 15.34 -7 14.68 -7 14 C-6.34 14 -5.68 14 -5 14 C-4.9175 13.360625 -4.835 12.72125 -4.75 12.0625 C-3.70479628 7.79458483 -1.85908174 3.96892333 0 0 Z " fill="#4B809F" transform="translate(708,564)"/>
<path d="M0 0 C0.99 0 1.98 0 3 0 C3 2.31 3 4.62 3 7 C4.32 7.33 5.64 7.66 7 8 C5.35 8 3.7 8 2 8 C2 11.3 2 14.6 2 18 C0 16 0 16 -0.125 12.375 C-0.08375 11.26125 -0.0425 10.1475 0 9 C-1.32 9 -2.64 9 -4 9 C-4 8.01 -4 7.02 -4 6 C-2.68 6 -1.36 6 0 6 C0 4.02 0 2.04 0 0 Z " fill="#3A7997" transform="translate(736,558)"/>
<path d="M0 0 C0.969375 0.309375 1.93875 0.61875 2.9375 0.9375 C3.5975 2.5875 4.2575 4.2375 4.9375 5.9375 C0.9775 5.9375 -2.9825 5.9375 -7.0625 5.9375 C-5.87052336 1.16959343 -5.00214532 -0.1020846 0 0 Z " fill="#F2F6F8" transform="translate(758.0625,566.0625)"/>
<path d="M0 0 C0.99 0 1.98 0 3 0 C3 5.28 3 10.56 3 16 C2.34 15.01 1.68 14.02 1 13 C-1.95064148 12.7791436 -4.68368231 12.71939011 -7.625 12.8125 C-8.82769531 12.83280273 -8.82769531 12.83280273 -10.0546875 12.85351562 C-12.03674378 12.88890949 -14.01845551 12.94271766 -16 13 C-16 12.67 -16 12.34 -16 12 C-10.72 12 -5.44 12 0 12 C0 8.04 0 4.08 0 0 Z " fill="#4684A6" transform="translate(477,556)"/>
<path d="M0 0 C5.45454545 0.45454545 5.45454545 0.45454545 8 3 C8 3.99 8 4.98 8 6 C4.04 6 0.08 6 -4 6 C-2 2 -2 2 0 0 Z " fill="#F2F6F8" transform="translate(493,566)"/>
<path d="M0 0 C3.5625 0.1875 3.5625 0.1875 5.5625 2.1875 C5.5625 3.1775 5.5625 4.1675 5.5625 5.1875 C1.9325 5.1875 -1.6975 5.1875 -5.4375 5.1875 C-4.19786866 0.22897465 -4.19786866 0.22897465 0 0 Z " fill="#FAFCFC" transform="translate(644.4375,566.8125)"/>
<path d="M0 0 C6.48979592 0.48979592 6.48979592 0.48979592 8.9375 2.9375 C10 5 10 5 10 7 C9.34 7 8.68 7 8 7 C8 7.66 8 8.32 8 9 C3.38 9 -1.24 9 -6 9 C-5.67 8.34 -5.34 7.68 -5 7 C-1.04 7.33 2.92 7.66 7 8 C5.44117911 3.77508516 5.44117911 3.77508516 1.875 2.75 C0.92625 2.5025 -0.0225 2.255 -1 2 C-0.67 1.34 -0.34 0.68 0 0 Z " fill="#598EAE" transform="translate(756,564)"/>
<path d="M0 0 C0.66 0.66 1.32 1.32 2 2 C1.01 3.485 1.01 3.485 0 5 C-2.3828125 5.29296875 -2.3828125 5.29296875 -5.125 5.1875 C-6.03507813 5.16042969 -6.94515625 5.13335938 -7.8828125 5.10546875 C-8.58148437 5.07066406 -9.28015625 5.03585937 -10 5 C-10 4.01 -10 3.02 -10 2 C-6.60535554 -0.08901197 -3.95158471 -0.34361606 0 0 Z " fill="#5787A7" transform="translate(610,563)"/>
<path d="M0 0 C0.78503906 0.00515625 1.57007813 0.0103125 2.37890625 0.015625 C3.55259766 0.00789062 3.55259766 0.00789062 4.75 0 C6.94140625 0.265625 6.94140625 0.265625 9.94140625 2.265625 C9.94140625 2.925625 9.94140625 3.585625 9.94140625 4.265625 C9.25433594 4.14703125 8.56726563 4.0284375 7.859375 3.90625 C6.95832031 3.77734375 6.05726563 3.6484375 5.12890625 3.515625 C4.23558594 3.37640625 3.34226562 3.2371875 2.421875 3.09375 C-0.22630594 2.99159972 -0.22630594 2.99159972 -1.8828125 5.25 C-2.27082031 5.91515625 -2.65882813 6.5803125 -3.05859375 7.265625 C-3.68359375 4.890625 -3.68359375 4.890625 -4.05859375 2.265625 C-2.05859375 0.265625 -2.05859375 0.265625 0 0 Z " fill="#3E779C" transform="translate(719.05859375,563.734375)"/>
<path d="M0 0 C0.99 0.33 1.98 0.66 3 1 C3 1.66 3 2.32 3 3 C-0.06246747 4.78409802 -2.22079273 5.22880021 -5.75 5.125 C-6.54921875 5.10695313 -7.3484375 5.08890625 -8.171875 5.0703125 C-8.77515625 5.04710937 -9.3784375 5.02390625 -10 5 C-9.67 3.68 -9.34 2.36 -9 1 C-7.700625 1.020625 -6.40125 1.04125 -5.0625 1.0625 C-3.70834367 1.08399454 -2.35243917 1.07148199 -1 1 C-0.67 0.67 -0.34 0.34 0 0 Z " fill="#4D89A9" transform="translate(501,579)"/>
<path d="M0 0 C0.99 0.33 1.98 0.66 3 1 C2 4 2 4 0 5 C-1.70702735 5.06996014 -3.41668003 5.08440154 -5.125 5.0625 C-6.03507813 5.05347656 -6.94515625 5.04445313 -7.8828125 5.03515625 C-8.58148437 5.02355469 -9.28015625 5.01195312 -10 5 C-9.34 3.68 -8.68 2.36 -8 1 C-6.865625 1.020625 -5.73125 1.04125 -4.5625 1.0625 C-1.18424326 1.41577477 -1.18424326 1.41577477 0 0 Z " fill="#4685A7" transform="translate(762,579)"/>
<path d="M0 0 C0.33 0 0.66 0 1 0 C1.04898438 0.61488281 1.09796875 1.22976563 1.1484375 1.86328125 C1.22320313 2.67152344 1.29796875 3.47976563 1.375 4.3125 C1.44460938 5.11300781 1.51421875 5.91351562 1.5859375 6.73828125 C1.89564426 9.27224441 1.89564426 9.27224441 4 12 C6.05925139 12.72382467 6.05925139 12.72382467 8 13 C8 13.99 8 14.98 8 16 C5.125 16.125 5.125 16.125 2 16 C0 14 0 14 -0.1953125 10.7421875 C-0.17210937 9.46601562 -0.14890625 8.18984375 -0.125 6.875 C-0.10695313 5.59367188 -0.08890625 4.31234375 -0.0703125 2.9921875 C-0.04710937 2.00476563 -0.02390625 1.01734375 0 0 Z " fill="#3A85AA" transform="translate(543,568)"/>
<path d="M0 0 C0.66 0 1.32 0 2 0 C2 1.32 2 2.64 2 4 C-3.61 4 -9.22 4 -15 4 C-15 3.34 -15 2.68 -15 2 C-10.05 2 -5.1 2 0 2 C0 1.34 0 0.68 0 0 Z " fill="#357399" transform="translate(764,571)"/>
<path d="M0 0 C0.66 0.99 1.32 1.98 2 3 C1.01 4.485 1.01 4.485 0 6 C-0.66613335 8.27538323 -0.66613335 8.27538323 -1.125 10.6875 C-1.29257812 11.49574219 -1.46015625 12.30398438 -1.6328125 13.13671875 C-1.75398438 13.75160156 -1.87515625 14.36648438 -2 15 C-3.32 15.33 -4.64 15.66 -6 16 C-4.25192871 10.53262809 -2.34205919 5.24175152 0 0 Z " fill="#264F80" transform="translate(477,487)"/>
<path d="M0 0 C-1.24976756 3.65316671 -1.67098753 4.78065836 -5 7 C-7.6875 7.125 -7.6875 7.125 -10 7 C-10 6.01 -10 5.02 -10 4 C-9.236875 3.71125 -8.47375 3.4225 -7.6875 3.125 C-0.22222222 0 -0.22222222 0 0 0 Z " fill="#4588AC" transform="translate(703,585)"/>
<path d="M0 0 C0.99 0 1.98 0 3 0 C3 0.66 3 1.32 3 2 C4.32 1.67 5.64 1.34 7 1 C7 1.66 7 2.32 7 3 C5.20963542 3.9765625 3.41927083 4.953125 1.62890625 5.9296875 C-0.16618315 6.91410024 -0.16618315 6.91410024 -1 9 C-1.66 9 -2.32 9 -3 9 C-2.01 6.03 -1.02 3.06 0 0 Z " fill="#234C7F" transform="translate(465,515)"/>
<path d="M0 0 C-1 3 -1 3 -3 4 C-4.54023996 4.06950541 -6.08334988 4.08452357 -7.625 4.0625 C-8.85089844 4.04896484 -8.85089844 4.04896484 -10.1015625 4.03515625 C-11.04128906 4.01775391 -11.04128906 4.01775391 -12 4 C-9.00076728 0.66140456 -4.39389336 -2.19694668 0 0 Z " fill="#3D80A6" transform="translate(652,580)"/>
<path d="M0 0 C0.99 0.99 1.98 1.98 3 3 C2 5 2 5 0.1875 5.75 C-2.89654517 7.51231152 -4.18036231 10.01059522 -6 13 C-6.33 12.01 -6.66 11.02 -7 10 C-5.56640625 7.51953125 -5.56640625 7.51953125 -3.5625 4.8125 C-2.90378906 3.91144531 -2.24507813 3.01039063 -1.56640625 2.08203125 C-1.04949219 1.39496094 -0.53257812 0.70789063 0 0 Z " fill="#39ADA9" transform="translate(371,496)"/>
<path d="M0 0 C2 3 2 3 1.609375 5.12109375 C1.32578125 5.88550781 1.0421875 6.64992188 0.75 7.4375 C0.47671875 8.19933594 0.2034375 8.96117187 -0.078125 9.74609375 C-0.95578874 11.89190722 -1.93183844 13.94332051 -3 16 C-3.66 16 -4.32 16 -5 16 C-4.34309381 12.21760329 -3.279869 8.78158474 -1.9375 5.1875 C-1.57527344 4.21167969 -1.21304687 3.23585938 -0.83984375 2.23046875 C-0.42412109 1.12638672 -0.42412109 1.12638672 0 0 Z " fill="#50ADA6" transform="translate(392,486)"/>
<path d="M0 0 C0.33 0.66 0.66 1.32 1 2 C1.66 2.33 2.32 2.66 3 3 C0.14723863 5.93200474 -2.65079784 8.64315404 -6 11 C-4.55662437 7.11398869 -2.98188088 2.98188088 0 0 Z " fill="#2F7CAD" transform="translate(346,600)"/>
<path d="M0 0 C1.39456452 0.00667256 2.78911118 0.01863093 4.18359375 0.03515625 C4.89451172 0.03966797 5.60542969 0.04417969 6.33789062 0.04882812 C8.09899388 0.06064761 9.86005411 0.07858362 11.62109375 0.09765625 C11.62109375 0.42765625 11.62109375 0.75765625 11.62109375 1.09765625 C10.39132812 1.11892578 10.39132812 1.11892578 9.13671875 1.140625 C2.40267114 1.19047244 2.40267114 1.19047244 -3.00390625 4.66015625 C-3.45765625 5.46453125 -3.91140625 6.26890625 -4.37890625 7.09765625 C-5.03890625 7.09765625 -5.69890625 7.09765625 -6.37890625 7.09765625 C-4.15199463 0.11999984 -4.15199463 0.11999984 0 0 Z " fill="#2D5386" transform="translate(488.37890625,469.90234375)"/>
<path d="M0 0 C0 0.66 0 1.32 0 2 C-0.70125 2.2475 -1.4025 2.495 -2.125 2.75 C-5.37002459 4.16088026 -8.10316737 5.97895398 -11 8 C-11.66 7.67 -12.32 7.34 -13 7 C-11.87720538 6.01830524 -10.75168527 5.03972702 -9.625 4.0625 C-8.68527344 3.24458984 -8.68527344 3.24458984 -7.7265625 2.41015625 C-4.81420826 0.03151398 -3.9939664 0 0 0 Z " fill="#285083" transform="translate(748,488)"/>
<path d="M0 0 C1.32 0.33 2.64 0.66 4 1 C1.36 3.64 -1.28 6.28 -4 9 C-4.33 7.68 -4.66 6.36 -5 5 C-2.8125 2.1875 -2.8125 2.1875 0 0 Z " fill="#4A8BB0" transform="translate(355,593)"/>
<path d="M0 0 C0.33 0.99 0.66 1.98 1 3 C1.99 3 2.98 3 4 3 C2.9024777 5.99324263 2.32317108 6.84610901 -0.625 8.25 C-1.40875 8.4975 -2.1925 8.745 -3 9 C-3 7.68 -3 6.36 -3 5 C-2.34 4.67 -1.68 4.34 -1 4 C-0.34786708 1.97536745 -0.34786708 1.97536745 0 0 Z " fill="#518DB0" transform="translate(685,575)"/>
<path d="M0 0 C-1 3 -1 3 -3 4 C-5.3329866 4.04022391 -7.66706666 4.04320247 -10 4 C-10 3.34 -10 2.68 -10 2 C-3.375 -1.125 -3.375 -1.125 0 0 Z " fill="#3B7BA1" transform="translate(595,580)"/>
<path d="M0 0 C1.98 0.99 1.98 0.99 4 2 C4 5.96 4 9.92 4 14 C3.67 14 3.34 14 3 14 C0.88838269 4.58997722 0.88838269 4.58997722 0 0 Z " fill="#347398" transform="translate(611,565)"/>
<path d="M0 0 C0.66 0 1.32 0 2 0 C2.33 2.97 2.66 5.94 3 9 C1.68 8.34 0.36 7.68 -1 7 C-1.04254356 5.00045254 -1.04080783 2.99958364 -1 1 C-0.67 0.67 -0.34 0.34 0 0 Z " fill="#377997" transform="translate(670,560)"/>
<path d="M0 0 C3.79588866 0.54226981 5.47211993 2.20127563 8 5 C5.03 5 2.06 5 -1 5 C-0.67 3.35 -0.34 1.7 0 0 Z " fill="#5AADAC" transform="translate(361,509)"/>
<path d="M0 0 C0 0.66 0 1.32 0 2 C-5.625 4 -5.625 4 -9 4 C-9.33 3.01 -9.66 2.02 -10 1 C-6.78548731 -0.60725635 -3.56387464 -0.05748185 0 0 Z " fill="#4581A3" transform="translate(520,572)"/>
<path d="M0 0 C0.99 0.33 1.98 0.66 3 1 C1.9275 1.5775 0.855 2.155 -0.25 2.75 C-3.3026529 4.48375824 -5.64597393 6.3634908 -8 9 C-7.66032174 5.82966958 -7.00130809 5.00117393 -4.5625 2.8125 C-2 1 -2 1 0 0 Z " fill="#295282" transform="translate(669,510)"/>
<path d="M0 0 C2.02907167 3.3146667 2.12742133 5.4315979 1.625 9.25 C1.51414062 10.14203125 1.40328125 11.0340625 1.2890625 11.953125 C1.19367187 12.62859375 1.09828125 13.3040625 1 14 C-0.5234375 12.6875 -0.5234375 12.6875 -2 11 C-1.625 8 -1.625 8 -1 5 C-1.33 4.01 -1.66 3.02 -2 2 C-1.34 2 -0.68 2 0 2 C0 1.34 0 0.68 0 0 Z " fill="#5A94B2" transform="translate(522,570)"/>
<path d="M0 0 C0 0.99 0 1.98 0 3 C-3 5.1875 -3 5.1875 -6 7 C-6.1875 4.625 -6.1875 4.625 -6 2 C-3 0 -3 0 0 0 Z " fill="#4885A2" transform="translate(605,572)"/>
<path d="M0 0 C0 0.66 0 1.32 0 2 C-2.97 2.66 -5.94 3.32 -9 4 C-9 3.01 -9 2.02 -9 1 C-6.04335481 -0.4783226 -3.25770263 -0.06032783 0 0 Z " fill="#4481A4" transform="translate(519,564)"/>
<path d="M0 0 C2.97 0.495 2.97 0.495 6 1 C6.33 2.32 6.66 3.64 7 5 C4.625 4.75 4.625 4.75 2 4 C0.6875 1.9375 0.6875 1.9375 0 0 Z " fill="#247982" transform="translate(382,512)"/>
<path d="M0 0 C0.33 0 0.66 0 1 0 C1 2.97 1 5.94 1 9 C0.01 9 -0.98 9 -2 9 C-2.25 3.375 -2.25 3.375 0 0 Z " fill="#3E86A7" transform="translate(460,575)"/>
<path d="M0 0 C0.99 0 1.98 0 3 0 C3.33 2.31 3.66 4.62 4 7 C3.01 7 2.02 7 1 7 C0.67 4.69 0.34 2.38 0 0 Z " fill="#3E7AA2" transform="translate(685,571)"/>
<path d="M0 0 C0.66 0 1.32 0 2 0 C2.33 0.99 2.66 1.98 3 3 C1.5625 5.1875 1.5625 5.1875 0 7 C-0.99 6.67 -1.98 6.34 -3 6 C-1.125 1.125 -1.125 1.125 0 0 Z " fill="#487C9F" transform="translate(489,565)"/>
<path d="M0 0 C3.3 0.99 6.6 1.98 10 3 C10 3.66 10 4.32 10 5 C3.9453125 4.609375 3.9453125 4.609375 2 4 C1.34 2.68 0.68 1.36 0 0 Z " fill="#92C5C4" transform="translate(354,504)"/>
<path d="M0 0 C3.3 0.33 6.6 0.66 10 1 C10 1.66 10 2.32 10 3 C6.7 3 3.4 3 0 3 C0 2.01 0 1.02 0 0 Z " fill="#3EA295" transform="translate(422,498)"/>
<path d="M0 0 C2.4375 0.75 2.4375 0.75 5 2 C5.8125 4.125 5.8125 4.125 6 6 C4.02 5.34 2.04 4.68 0 4 C0 2.68 0 1.36 0 0 Z " fill="#447FA5" transform="translate(682,556)"/>
<path d="M0 0 C0.33 0.66 0.66 1.32 1 2 C0.22265625 3.7265625 0.22265625 3.7265625 -0.9375 5.625 C-1.618125 6.73875 -2.29875 7.8525 -3 9 C-3.66 8.34 -4.32 7.68 -5 7 C-5 5.68 -5 4.36 -5 3 C-2.5 1.25 -2.5 1.25 0 0 Z " fill="#54ABA7" transform="translate(243,458)"/>
<path d="M0 0 C0.33 0 0.66 0 1 0 C1 1.65 1 3.3 1 5 C2.65 5 4.3 5 6 5 C6 5.99 6 6.98 6 8 C1.125 7.125 1.125 7.125 0 6 C-0.04080783 4.00041636 -0.04254356 1.99954746 0 0 Z " fill="#3E7A9C" transform="translate(545,559)"/>
<path d="M0 0 C0 0.66 0 1.32 0 2 C-3.82989106 3.80230168 -6.78121808 4.19622241 -11 4 C-7.32740617 1.55160412 -4.45351799 0 0 0 Z " fill="#4EAEA5" transform="translate(325,469)"/>
<path d="M0 0 C2.31 0 4.62 0 7 0 C6.67 0.99 6.34 1.98 6 3 C4.02 3 2.04 3 0 3 C0 2.01 0 1.02 0 0 Z " fill="#3A7DA4" transform="translate(676,581)"/>
<path d="M0 0 C0.33 0 0.66 0 1 0 C1 2.31 1 4.62 1 7 C-0.65 6.67 -2.3 6.34 -4 6 C-4 5.01 -4 4.02 -4 3 C-2.68 3 -1.36 3 0 3 C0 2.01 0 1.02 0 0 Z " fill="#3C7A9A" transform="translate(543,561)"/>
<path d="M0 0 C0.33 0 0.66 0 1 0 C1.04898438 0.61488281 1.09796875 1.22976563 1.1484375 1.86328125 C1.22320313 2.67152344 1.29796875 3.47976563 1.375 4.3125 C1.44460938 5.11300781 1.51421875 5.91351562 1.5859375 6.73828125 C1.89564426 9.27224441 1.89564426 9.27224441 4 12 C3.01 12.33 2.02 12.66 1 13 C0 12 0 12 -0.09765625 9.27734375 C-0.08605469 8.17519531 -0.07445312 7.07304688 -0.0625 5.9375 C-0.05347656 4.83277344 -0.04445313 3.72804688 -0.03515625 2.58984375 C-0.02355469 1.73519531 -0.01195312 0.88054688 0 0 Z " fill="#6996AE" transform="translate(558,556)"/>
<path d="M0 0 C0.66 0.99 1.32 1.98 2 3 C1.34 3 0.68 3 0 3 C0.185625 3.61875 0.37125 4.2375 0.5625 4.875 C1 7 1 7 0 9 C-0.99 9 -1.98 9 -3 9 C-2.01 6.03 -1.02 3.06 0 0 Z " fill="#2D5885" transform="translate(460,527)"/>
<path d="M0 0 C0.99 0.33 1.98 0.66 3 1 C4.1875 3.5625 4.1875 3.5625 5 6 C3.68 5.67 2.36 5.34 1 5 C0.67 3.35 0.34 1.7 0 0 Z " fill="#38769A" transform="translate(749,577)"/>
<path d="M0 0 C1.32 0.33 2.64 0.66 4 1 C3.67 2.32 3.34 3.64 3 5 C0.69 4.34 -1.62 3.68 -4 3 C-2.68 2.67 -1.36 2.34 0 2 C0 1.34 0 0.68 0 0 Z " fill="#5D92B0" transform="translate(519,564)"/>
<path d="M0 0 C0.33 0.66 0.66 1.32 1 2 C1.66 2 2.32 2 3 2 C2.67 3.65 2.34 5.3 2 7 C0.68 6.34 -0.64 5.68 -2 5 C-2 4.34 -2 3.68 -2 3 C-1.34 3 -0.68 3 0 3 C0 2.01 0 1.02 0 0 Z " fill="#558CAA" transform="translate(703,575)"/>
<path d="M0 0 C1.74627478 2.61941217 2.38722388 4.03824877 3 7 C2.01 7.66 1.02 8.32 0 9 C-1.10844919 5.67465243 -0.84454356 3.37817425 0 0 Z " fill="#4780A1" transform="translate(698,571)"/>
<path d="M0 0 C1.7074998 1.28062485 3.37373596 2.61767557 5 4 C5 4.66 5 5.32 5 6 C4.01 6.33 3.02 6.66 2 7 C0 5 0 5 -0.125 2.375 C-0.08375 1.59125 -0.0425 0.8075 0 0 Z " fill="#5A90AC" transform="translate(714,567)"/>
<path d="M0 0 C1.32 0.66 2.64 1.32 4 2 C3.01 2.99 2.02 3.98 1 5 C-1.475 4.01 -1.475 4.01 -4 3 C-2.68 2.67 -1.36 2.34 0 2 C0 1.34 0 0.68 0 0 Z " fill="#5588B0" transform="translate(795,564)"/>
<path d="M0 0 C2.475 0.99 2.475 0.99 5 2 C4.67 2.99 4.34 3.98 4 5 C2.68 4.34 1.36 3.68 0 3 C0 2.01 0 1.02 0 0 Z " fill="#5185A2" transform="translate(590,564)"/>
</svg>
