<?xml version="1.0" encoding="UTF-8"?>
<svg version="1.1" xmlns="http://www.w3.org/2000/svg" width="1024" height="1024">
<path d="M0 0 C337.92 0 675.84 0 1024 0 C1024 337.92 1024 675.84 1024 1024 C686.08 1024 348.16 1024 0 1024 C0 686.08 0 348.16 0 0 Z " fill="#FDFEFE" transform="translate(0,0)"/>
<path d="M0 0 C0 3.95454467 -1.78596736 6.47179803 -3.6875 9.8125 C-7.65657712 17.00431708 -10.4517102 24.17938647 -13 32 C-13.28488281 32.77472656 -13.56976563 33.54945313 -13.86328125 34.34765625 C-18.44447337 46.91656796 -19.52821645 59.51042713 -19.375 72.75 C-19.36935028 73.49589386 -19.36370056 74.24178772 -19.35787964 75.01028442 C-19.04060084 110.83981829 -7.26126324 144.69109358 15 173 C15.6909375 173.91136719 16.381875 174.82273437 17.09375 175.76171875 C23.77175235 184.29610609 31.20576962 191.20576962 39 199 C39.33 176.89 39.66 154.78 40 132 C50.82430812 126.58784594 61.64906388 121.18567607 72.52075195 115.87084961 C74.14556338 115.07526814 75.76924584 114.27737724 77.3918457 113.47729492 C79.78854398 112.29581046 82.18877288 111.12178659 84.58984375 109.94921875 C85.30252914 109.59607101 86.01521454 109.24292328 86.74949646 108.8790741 C91.81048963 106.42133431 96.56188918 104.81270361 102 103 C102 88.15 102 73.3 102 58 C126.67338509 48.82394769 151.42721517 39.90462946 176.24522495 31.13017941 C179.58161164 29.95051844 182.91782364 28.77036437 186.25390625 27.58984375 C186.91304205 27.35661722 187.57217785 27.12339069 188.25128746 26.88309669 C197.75167655 23.52012541 207.23845377 20.12152849 216.71484375 16.69140625 C218.44448868 16.06578293 218.44448868 16.06578293 220.20907593 15.42752075 C225.61000713 13.47296288 231.00897857 11.51321909 236.40527344 9.54589844 C238.32612352 8.84947599 240.24701929 8.15317954 242.16796875 7.45703125 C243.00794907 7.14866837 243.84792938 6.84030548 244.71336365 6.52259827 C250.77980697 4.33040824 256.7222982 2.71210049 263 1 C263 37.96 263 74.92 263 113 C266.96 113 270.92 113 275 113 C275.66 113.33 276.32 113.66 277 114 C277.33 114.99 277.66 115.98 278 117 C279.99665314 118.68538601 279.99665314 118.68538601 282 120 C282.58394531 118.96166016 282.58394531 118.96166016 283.1796875 117.90234375 C287.04877918 111.1358908 291.16489359 104.61745852 295.53466797 98.16577148 C295.94088379 97.56579346 296.34709961 96.96581543 296.765625 96.34765625 C297.15169922 95.77934082 297.53777344 95.21102539 297.93554688 94.62548828 C298.90776078 93.14085521 299.7949414 91.6014232 300.671875 90.05859375 C301.11015625 89.37925781 301.5484375 88.69992187 302 88 C302.66 88 303.32 88 304 88 C305.32509617 89.88301146 306.55305608 91.83454884 307.73828125 93.80859375 C308.282248 94.70881004 308.282248 94.70881004 308.83720398 95.62721252 C310.00250413 97.5599371 311.15738017 99.49867765 312.3125 101.4375 C313.0794438 102.71066878 313.84701484 103.98345995 314.61523438 105.25585938 C318.21090621 111.23155237 321.75652183 117.20228733 324.88818359 123.43945312 C326.03233177 125.3746638 326.03233177 125.3746638 329.3125 126.0625 C330.199375 126.041875 331.08625 126.02125 332 126 C332.11142334 125.31631348 332.22284668 124.63262695 332.33764648 123.92822266 C333.11296689 120.50058057 334.30111322 117.41604838 335.59765625 114.1484375 C336.1501806 112.74537476 336.70266906 111.34229789 337.25512695 109.93920898 C337.69630356 108.82556473 337.69630356 108.82556473 338.14639282 107.68942261 C344.22158313 92.34126452 350.0699489 76.91287575 355.8125 61.4375 C356.16619659 60.48518494 356.51989319 59.53286987 356.88430786 58.55169678 C357.88878997 55.84605909 358.89209694 53.13999075 359.89453125 50.43359375 C360.34514923 49.21724998 360.34514923 49.21724998 360.80487061 47.97633362 C361.90659349 44.99479254 362.99476958 42.01569125 364 39 C364.66 39 365.32 39 366 39 C368.78140875 47.02466015 371.34694466 55.05106159 373.5625 63.25 C375.13967073 69.07476436 376.89110903 74.73408454 379.0390625 80.37890625 C380.50711843 84.38323767 381.70040702 88.46526871 382.93359375 92.546875 C384.06709592 96.21726297 385.27317245 99.86010062 386.5 103.5 C397 134.74847909 397 134.74847909 397 140 C397.66 140 398.32 140 399 140 C399.09152344 139.33613281 399.18304687 138.67226563 399.27734375 137.98828125 C400.21363279 134.11659955 401.83481743 130.76260551 403.5625 127.1875 C404.0565332 126.14819336 404.0565332 126.14819336 404.56054688 125.08789062 C405.36872251 123.38955052 406.18368377 121.69444231 407 120 C407.67349991 120.00079559 408.34699982 120.00159119 409.04090881 120.00241089 C416.06574141 120.00485306 423.08947177 119.96558439 430.11401367 119.90234375 C432.73375322 119.88420173 435.35358835 119.87661195 437.97338867 119.87988281 C441.74472755 119.88274477 445.51409125 119.84737354 449.28515625 119.8046875 C450.45208511 119.81378143 451.61901398 119.82287537 452.82130432 119.83224487 C458.23223125 119.73604512 461.96345369 119.63587463 466.16967773 116.01220703 C467.11923728 115.01392265 468.06391592 114.01093107 469 113 C472.51228138 111.24385931 476.16703537 111.45592687 480 112 C485.79657124 114.44653882 490.16681249 118.33362498 493 124 C493.59520744 129.60345293 494.12154174 135.21349855 490.875 140.0625 C487.48020809 143.91808083 484.35209376 145.74117263 479.16015625 146.3125 C472.77484296 146.56507111 468.81336387 146.30669399 464 142 C463.34 141.34 462.68 140.68 462 140 C460.14463576 139.67110612 460.14463576 139.67110612 458.00927734 139.68115234 C457.18857758 139.66128265 456.36787781 139.64141296 455.52230835 139.62094116 C454.63580597 139.60938995 453.74930359 139.59783875 452.8359375 139.5859375 C451.92872955 139.56657135 451.02152161 139.5472052 450.08682251 139.5272522 C447.18297796 139.46736784 444.27909396 139.42103584 441.375 139.375 C439.40883667 139.33682835 437.4426902 139.29777711 435.4765625 139.2578125 C430.6511783 139.16165909 425.82571582 139.077661 421 139 C420.82499466 139.54409515 420.64998932 140.08819031 420.46968079 140.64877319 C418.64889838 146.22090305 416.61320737 151.6673043 414.41796875 157.1015625 C414.08130692 157.94109467 413.74464508 158.78062683 413.39778137 159.64559937 C412.33014099 162.30639276 411.25891353 164.96572401 410.1875 167.625 C409.48087666 169.38401693 408.77449469 171.14313085 408.06835938 172.90234375 C406.69573956 176.32113839 405.32182302 179.73940693 403.94677734 183.15722656 C401.28810193 189.76758629 398.6432202 196.38344737 396 203 C394 202 394 202 392.9921875 198.9921875 C392.61420593 197.62131956 392.24232896 196.24876068 391.875 194.875 C389.85388044 187.64513095 387.51180328 180.57354321 385 173.5 C382.38124125 166.0973909 379.94043646 158.69279333 377.79296875 151.140625 C376.3350646 146.04285276 374.70335777 141.02073448 373 136 C370.95303005 129.94731594 369.00292831 123.87640113 367.1875 117.75 C366.98060547 117.0590625 366.77371094 116.368125 366.56054688 115.65625 C365.43128719 111.7931933 364.57521199 107.98318841 364 104 C363.34 104 362.68 104 362 104 C361.8450708 104.57250488 361.6901416 105.14500977 361.53051758 105.73486328 C359.4596458 113.0296014 356.67242181 119.91153984 353.6875 126.875 C353.22666016 127.96941406 352.76582031 129.06382812 352.29101562 130.19140625 C343.28631154 151.35684423 343.28631154 151.35684423 340 153 C337.6670134 153.04022391 335.33293334 153.04320247 333 153 C333.01106152 153.57131023 333.02212303 154.14262047 333.03351974 154.73124313 C333.2993816 168.67976748 333.49674447 182.62784379 333.62174606 196.57836533 C333.6834347 203.325146 333.7674128 210.07022823 333.90527344 216.81591797 C334.03615015 223.33242934 334.10751123 229.84718163 334.13852692 236.36490631 C334.16061381 238.84491916 334.20374781 241.3248411 334.26876068 243.80410004 C334.80921768 265.27837636 334.80921768 265.27837636 329.01530838 271.70172501 C327.03347871 273.54680653 324.93688019 275.1991356 322.72292328 276.75745296 C315.06171519 282.28260404 308.54806193 289.31414262 301.90234375 295.98413086 C300.80779665 297.07896058 299.71302823 298.17356907 298.61805725 299.26797485 C295.66803548 302.21771154 292.72109143 305.17050532 289.77471924 308.12388682 C286.68690323 311.21798477 283.59622558 314.30922164 280.50585938 317.40077209 C274.66402183 323.24570874 268.82473652 329.09318819 262.98637962 334.94160134 C256.33534559 341.60384076 249.68144728 348.26321639 243.02731514 354.92236125 C229.34836959 368.611739 215.67299821 382.30468215 202 396 C201.01 395.67 200.02 395.34 199 395 C199 394.34 199 393.68 199 393 C198.4225 392.773125 197.845 392.54625 197.25 392.3125 C194.42591529 390.66511725 193.0023037 388.56545162 191 386 C190.2575 385.443125 189.515 384.88625 188.75 384.3125 C188.1725 383.879375 187.595 383.44625 187 383 C187 382.34 187 381.68 187 381 C186.41065674 380.73590332 185.82131348 380.47180664 185.21411133 380.19970703 C182.91552851 378.95422948 181.41060483 377.65447786 179.57421875 375.8046875 C178.94193359 375.17046875 178.30964844 374.53625 177.65820312 373.8828125 C177.00787109 373.22023438 176.35753906 372.55765625 175.6875 371.875 C175.04876953 371.235625 174.41003906 370.59625 173.75195312 369.9375 C170.65224943 366.80953152 167.67151832 363.62911544 164.79628468 360.29345989 C161.38805096 356.39323039 157.82793539 352.69724172 154.15129089 349.05122375 C153.4989972 348.40019233 152.84670351 347.74916091 152.17464334 347.07840127 C150.01097656 344.92006732 147.84374315 342.76535177 145.67651367 340.6105957 C144.11513255 339.0544137 142.5539971 337.49798518 140.99308777 335.94132996 C137.64145184 332.59960367 134.28835888 329.25934874 130.93419456 325.92016029 C125.62188102 320.63100334 120.31452745 315.33688825 115.00813293 310.04179382 C107.56042489 302.61055178 100.11203482 295.17999496 92.66186523 287.7512207 C91.95399011 287.04537423 91.95399011 287.04537423 91.23181448 286.32526823 C83.59200625 278.70761935 75.94835066 271.09384 68.30371412 263.481037 C60.43076315 255.64058702 52.56376635 247.79419064 44.70146543 239.94306058 C39.43741396 234.68707011 34.16688417 229.43769431 28.8913902 224.19319022 C25.59849393 220.91639886 22.31201222 217.63323112 19.0272541 214.34828377 C17.51345533 212.83688905 15.99711011 211.3280394 14.4779129 209.82207108 C3.20840474 198.64654555 -6.71258914 187.21496504 -15.125 173.6875 C-15.87837646 172.4823877 -15.87837646 172.4823877 -16.64697266 171.25292969 C-32.2004428 146.00281966 -44.04135802 115.937361 -44.203125 85.99609375 C-44.20882507 85.15514664 -44.21452515 84.31419952 -44.22039795 83.44776917 C-44.22979137 81.67539708 -44.23635923 79.90300798 -44.24023438 78.13061523 C-44.24988609 75.46891371 -44.28094146 72.8080036 -44.3125 70.14648438 C-44.37749835 59.66580653 -43.53416552 50.21476994 -41 40 C-40.6453648 38.41546937 -40.29111924 36.83085142 -39.9375 35.24609375 C-39.628125 33.98925781 -39.31875 32.73242188 -39 31.4375 C-38.5359375 29.51744141 -38.5359375 29.51744141 -38.0625 27.55859375 C-35.35774269 18.49964554 -35.35774269 18.49964554 -30.64599609 15.77416992 C-29.28090453 15.07489021 -27.90601272 14.39451155 -26.5234375 13.73046875 C-25.79758453 13.36399734 -25.07173157 12.99752594 -24.32388306 12.61994934 C-22.015609 11.45885865 -19.69606843 10.32276335 -17.375 9.1875 C-15.04980458 8.02898242 -12.72710687 6.86557496 -10.4046936 5.70149231 C-8.96124356 4.98032953 -7.51563006 4.26347816 -6.06771851 3.55131531 C-2.81708594 2.09983283 -2.81708594 2.09983283 0 0 Z " fill="#38889D" transform="translate(310,341)"/>
<path d="M0 0 C0.85088825 36.3124214 1.5008324 72.62306742 1.88941719 108.94344119 C1.93568147 113.25194251 1.98357254 117.5604243 2.0324707 121.86889648 C2.04217619 122.72646928 2.05188167 123.58404208 2.06188127 124.46760193 C2.22196211 138.2711259 2.51312528 152.0688235 2.85465346 165.86891486 C3.20332898 180.07863358 3.40671426 194.28534964 3.48127431 208.49916869 C3.52707283 216.46533666 3.63598537 224.41937012 3.9120121 232.38117027 C5.73469424 286.46742024 5.73469424 286.46742024 -10.86726719 305.13732773 C-18.59339599 313.19637784 -27.32450992 321.30839131 -37 327 C-37.66 327 -38.32 327 -39 327 C-40.2051239 325.77610779 -40.2051239 325.77610779 -41.69799805 323.93530273 C-47.67022968 316.92059147 -54.31688954 310.53957093 -60.83203125 304.03515625 C-62.27469741 302.59181566 -63.71721517 301.14832671 -65.15959167 299.70469666 C-68.16784301 296.69497775 -71.177879 293.68705843 -74.18920898 290.68041992 C-78.05413104 286.8212255 -81.91450484 282.95751733 -85.7735796 279.09247684 C-88.7442256 276.11822602 -91.71723833 273.14635019 -94.69098473 270.17519951 C-96.11632429 268.75052784 -97.54091914 267.32511072 -98.96476173 265.89894295 C-100.94651576 263.9146604 -102.93142756 261.93359267 -104.91723633 259.95336914 C-105.50684647 259.36173477 -106.0964566 258.7701004 -106.70393372 258.16053772 C-109.57867661 255.21955446 -109.57867661 255.21955446 -113 253 C-113 182.71 -113 112.42 -113 40 C-94.80645161 33.17741935 -94.80645161 33.17741935 -87.4375 30.8125 C-85.97688547 30.34287815 -84.5172309 29.87025927 -83.05859375 29.39453125 C-82.44298584 29.19706299 -81.82737793 28.99959473 -81.19311523 28.79614258 C-78.70636271 27.89340407 -76.29453771 26.84277205 -73.86784363 25.7910614 C-70.84117679 24.50921999 -67.76417512 23.36287315 -64.68359375 22.21875 C-63.99680038 21.96250854 -63.31000702 21.70626709 -62.60240173 21.44226074 C-55.20067082 18.68875905 -47.77572537 15.99947799 -40.34594727 13.32275391 C-38.0667792 12.50154185 -35.78823312 11.6786223 -33.50976562 10.85546875 C-29.76696353 9.50414828 -26.02184384 8.15939664 -22.2756958 6.81738281 C-19.91250206 5.96857255 -17.55174236 5.11318799 -15.19091797 4.2578125 C-13.64690266 3.70286683 -12.10279775 3.14817039 -10.55859375 2.59375 C-9.8426857 2.33267456 -9.12677765 2.07159912 -8.38917542 1.8026123 C-5.45455831 0.75469529 -3.14185736 0 0 0 Z " fill="#FDFDFD" transform="translate(549,376)"/>
<path d="M0 0 C9.24 0 18.48 0 28 0 C28 10.23 28 20.46 28 31 C32.41375 28.73125 36.8275 26.4625 41.375 24.125 C43.53180298 23.01729248 43.53180298 23.01729248 45.73217773 21.88720703 C51.45477062 18.93683904 57.14808221 15.96684542 62.72265625 12.7421875 C63.53492676 12.27280762 64.34719727 11.80342773 65.18408203 11.31982422 C66.64561958 10.46380342 68.09908098 9.59378222 69.54248047 8.70751953 C72.40868487 7.02762718 74.60884327 6.01916927 77.94921875 5.85546875 C82.42511456 7.53464605 85.70418627 10.29793884 89.375 13.3125 C90.98467735 14.60020903 92.59537358 15.88664534 94.20703125 17.171875 C95.01221191 17.81833984 95.81739258 18.46480469 96.64697266 19.13085938 C100.06595146 21.84674459 103.55723383 24.45954049 107.0625 27.0625 C114.7049782 32.76284279 122.28008647 38.54829728 129.84570312 44.35009766 C132.01461337 46.01119188 134.18650662 47.6683063 136.359375 49.32421875 C149.07220396 59.01569634 161.67735305 68.81495507 174 79 C178.17048026 76.07179045 182.00962817 73.09910208 185.5 69.375 C206.18934851 48.36550683 239.19563263 32.11417932 268.9740448 31.83540344 C269.6877272 31.83429062 270.40140961 31.8331778 271.13671875 31.83203125 C272.2777581 31.82703865 272.2777581 31.82703865 273.44184875 31.82194519 C275.04447837 31.81690938 276.64711834 31.81453582 278.24975586 31.81469727 C280.66343111 31.81252169 283.07664037 31.79436038 285.49023438 31.77539062 C294.20091726 31.7432922 302.44647198 32.15627116 311 34 C311.69182373 34.13543213 312.38364746 34.27086426 313.09643555 34.41040039 C348.67262609 41.60542862 380.98553659 63.03307841 401.47265625 93.02734375 C417.0534156 116.96379166 425.20778125 143.71662129 425.25 172.25 C425.25233643 172.96365723 425.25467285 173.67731445 425.25708008 174.41259766 C425.27091772 185.59089365 424.34733345 196.04577722 422 207 C413.75 207 405.5 207 397 207 C397.7425 202.6378125 397.7425 202.6378125 398.5 198.1875 C399.8391301 189.42920837 400.302658 180.79345125 400.3125 171.9375 C400.31765625 170.83365967 400.3228125 169.72981934 400.328125 168.5925293 C400.23528773 157.54903868 398.47513729 147.26497708 394.9375 136.8125 C394.63440918 135.91539307 394.33131836 135.01828613 394.01904297 134.09399414 C389.17789758 120.30417581 382.22790052 108.30991249 373 97 C372.50113281 96.34902344 372.00226563 95.69804687 371.48828125 95.02734375 C359.58622265 80.05598637 341.39871332 70.48171697 323.92163086 63.74780273 C322.4114164 63.16010271 320.91862319 62.52761774 319.43359375 61.87890625 C316.09081128 60.67164131 312.67542823 60.05764905 309.1875 59.4375 C308.51396484 59.31181641 307.84042969 59.18613281 307.14648438 59.05664062 C284.14523973 54.85258538 258.45364689 54.59823181 237 65 C236.41154297 65.27328125 235.82308594 65.5465625 235.21679688 65.828125 C226.11649534 70.05998936 217.83271121 74.65338093 210 81 C208.98292969 81.8146875 207.96585938 82.629375 206.91796875 83.46875 C195.88011228 92.52880014 185.98712606 102.81645542 176 113 C173.12241455 111.60686556 170.88458494 110.20130535 168.5 108.0625 C167.80132812 107.43988281 167.10265625 106.81726563 166.3828125 106.17578125 C164.68037753 104.62126276 162.98883534 103.05478086 161.3046875 101.48046875 C154.42424466 95.05420753 147.27371731 89.1661539 139.82080078 83.41796875 C137.35389694 81.49684009 134.92258835 79.53317241 132.49023438 77.56860352 C126.15898968 72.45637204 119.73027651 67.50333416 113.20068359 62.64746094 C107.99670796 58.7699889 102.86517836 54.80618302 97.75 50.8125 C96.24088763 49.64062214 94.73177311 48.46874707 93.22265625 47.296875 C90.58628862 45.2466968 87.96985565 43.17570228 85.37109375 41.078125 C84.31008811 40.23934005 83.24890466 39.40077997 82.1875 38.5625 C81.29417969 37.84191406 80.40085937 37.12132812 79.48046875 36.37890625 C76.34241255 34.63444351 75.39842551 35.04259677 72 36 C70.18049635 36.83787062 68.39255217 37.74607903 66.6328125 38.703125 C65.07494019 39.54544678 65.07494019 39.54544678 63.4855957 40.40478516 C62.37659912 41.01370605 61.26760254 41.62262695 60.125 42.25 C58.96895264 42.87825684 57.81290527 43.50651367 56.62182617 44.15380859 C48.18364485 48.74864083 39.82506486 53.48086671 31.47924805 58.2409668 C23.91578832 62.5337765 16.24205131 66.58297753 8.5144043 70.57104492 C2.3299415 73.76710535 -3.78561873 77.06448353 -9.875 80.4375 C-22.78319601 87.56811784 -35.95581377 94.1952302 -49.09912109 100.87866211 C-49.97719925 101.32583588 -50.8552774 101.77300964 -51.75996399 102.23373413 C-53.42055848 103.0791021 -55.08196233 103.92288275 -56.74430847 104.76480103 C-57.49456802 105.146716 -58.24482758 105.52863098 -59.01782227 105.92211914 C-60.07470497 106.45576836 -60.07470497 106.45576836 -61.15293884 107.00019836 C-63.15381387 108.02873235 -63.15381387 108.02873235 -65.39697266 109.76074219 C-69.58052198 111.7524601 -73.76296875 111.36677751 -78.33203125 111.29296875 C-79.81965218 111.28660149 -79.81965218 111.28660149 -81.33732605 111.28010559 C-84.49599685 111.26335123 -87.65402297 111.22570448 -90.8125 111.1875 C-92.95767306 111.17244899 -95.10285615 111.15876132 -97.24804688 111.14648438 C-102.49891681 111.11345841 -107.74941234 111.06329122 -113 111 C-108.49999943 101.14267445 -91.91435605 95.76044469 -82.7746582 91.05859375 C-75.83617614 87.48827208 -68.95836752 83.82976632 -62.125 80.0625 C-52.85853402 74.96175514 -43.48827136 70.08077031 -34.08276367 65.24194336 C-25.51648303 60.82220876 -17.04127725 56.25377563 -8.625 51.5546875 C-7.77808594 51.08546875 -6.93117188 50.61625 -6.05859375 50.1328125 C-5.31923584 49.71918457 -4.57987793 49.30555664 -3.81811523 48.87939453 C-2 48 -2 48 0 48 C0 32.16 0 16.32 0 0 Z " fill="#4AA790" transform="translate(337,236)"/>
<path d="M0 0 C4.68509437 1.56169812 6.1249509 4.53294555 8.48269653 8.75521851 C12.34840988 17.97963636 11.01677824 29.29364374 10.96484375 39.08203125 C10.97210763 41.62644553 10.9812993 44.17085497 10.99232483 46.71525574 C11.00710468 52.02851467 10.99687676 57.34091944 10.9675293 62.65405273 C10.93419626 68.78170572 10.95552047 74.90742841 11.00423139 81.03493482 C11.04947886 86.95749644 11.04973526 92.87945992 11.0315876 98.80219078 C11.0287706 101.31119043 11.03806777 103.82023448 11.05979729 106.32914162 C11.08486852 109.83385543 11.05870937 113.33460855 11.01928711 116.83911133 C11.037052 117.87042679 11.05481689 118.90174225 11.07312012 119.96430969 C10.98352926 124.03749931 10.9206322 126.8640604 8.29808807 130.09993649 C6.27441058 131.87402264 4.19466737 133.44522191 2 135 C0.58765746 136.34719574 -0.81021697 137.71005461 -2.18115234 139.09936523 C-3.2516835 140.17969276 -3.2516835 140.17969276 -4.34384155 141.28184509 C-5.08373322 142.03317215 -5.82362488 142.78449921 -6.5859375 143.55859375 C-8.19127761 145.17655994 -9.79675008 146.7943948 -11.40234375 148.41210938 C-13.90602832 150.94076651 -16.40807228 153.47100903 -18.90771484 156.00366211 C-21.33781785 158.46378098 -23.77394997 160.91779733 -26.2109375 163.37109375 C-27.33899307 164.51933876 -27.33899307 164.51933876 -28.48983765 165.69078064 C-29.53199936 166.73801048 -29.53199936 166.73801048 -30.59521484 167.80639648 C-31.20618011 168.42481918 -31.81714539 169.04324188 -32.44662476 169.68040466 C-34 171 -34 171 -36 171 C-36 116.22 -36 61.44 -36 5 C-24.78 5 -13.56 5 -2 5 C-1.34 3.35 -0.68 1.7 0 0 Z " fill="#FCFDFD" transform="translate(609,469)"/>
<path d="M0 0 C0 43.89 0 87.78 0 133 C-2.31 131.02 -4.62 129.04 -7 127 C-8.83134866 125.84845248 -10.66328432 124.69721607 -12.51904297 123.58543396 C-23.36403396 116.83903653 -33.46320442 108.2250049 -38 96 C-43.67128946 71.33817998 -39.89380963 42.98939365 -38 18 C-35.46108852 16.72804984 -32.92190606 15.45664562 -30.38256836 14.18554688 C-29.67073143 13.82885925 -28.9588945 13.47217163 -28.22548676 13.10467529 C-22.36758414 10.17325593 -16.47945042 7.31044098 -10.5625 4.5 C-9.18094727 3.83871094 -9.18094727 3.83871094 -7.77148438 3.1640625 C-6.89943359 2.74898438 -6.02738281 2.33390625 -5.12890625 1.90625 C-4.35619385 1.53822266 -3.58348145 1.17019531 -2.78735352 0.79101562 C-1 0 -1 0 0 0 Z " fill="#FCFDFD" transform="translate(412,470)"/>
<path d="M0 0 C6.93 0 13.86 0 21 0 C21 7.59 21 15.18 21 23 C28.59 23 36.18 23 44 23 C44 29.93 44 36.86 44 44 C36.41 44 28.82 44 21 44 C21 51.26 21 58.52 21 66 C14.07 66 7.14 66 0 66 C0 58.74 0 51.48 0 44 C-7.59 44 -15.18 44 -23 44 C-23 36.74 -23 29.48 -23 22 C-15.41 22 -7.82 22 0 22 C0 14.74 0 7.48 0 0 Z " fill="#3A939E" transform="translate(482,427)"/>
<path d="M0 0 C4.62 0 9.24 0 14 0 C11.48235294 7.55294118 11.48235294 7.55294118 8 10 C5.69 10 3.38 10 1 10 C1 47.29 1 84.58 1 123 C0.67 123 0.34 123 0 123 C0 82.41 0 41.82 0 0 Z " fill="#85B4C1" transform="translate(642,484)"/>
<path d="M0 0 C1.95825873 -0.02694851 3.91662226 -0.04637218 5.875 -0.0625 C6.96554687 -0.07410156 8.05609375 -0.08570313 9.1796875 -0.09765625 C12 0 12 0 14 1 C14.33 1.99 14.66 2.98 15 4 C16.99665314 5.68538601 16.99665314 5.68538601 19 7 C19.66 6.34 20.32 5.68 21 5 C21.33 8.96 21.66 12.92 22 17 C21.34 17 20.68 17 20 17 C20 16.34 20 15.68 20 15 C19.34 15 18.68 15 18 15 C18 14.34 18 13.68 18 13 C17.401875 12.87625 16.80375 12.7525 16.1875 12.625 C14 12 14 12 11 10 C10.29947539 7.336937 10.22255182 4.75964263 10 2 C9.01 2 8.02 2 7 2 C6.67 2.66 6.34 3.32 6 4 C5.67 3.34 5.34 2.68 5 2 C2.47266765 1.34444881 2.47266765 1.34444881 0 1 C0 0.67 0 0.34 0 0 Z " fill="#99CBC7" transform="translate(573,454)"/>
<path d="M0 0 C4.29 0 8.58 0 13 0 C9.25 7.875 9.25 7.875 7 9 C4.6670134 9.04022391 2.33293334 9.04320247 0 9 C0 6.03 0 3.06 0 0 Z " fill="#B4DBD9" transform="translate(643,485)"/>
<path d="M0 0 C0.99 0.33 1.98 0.66 3 1 C2.04882866 2.1725131 1.08882991 3.33787015 0.125 4.5 C-0.67550781 5.47453125 -0.67550781 5.47453125 -1.4921875 6.46875 C-1.98976563 6.9740625 -2.48734375 7.479375 -3 8 C-3.66 8 -4.32 8 -5 8 C-5.33 8.99 -5.66 9.98 -6 11 C-7.6483599 12.0298968 -9.31786507 13.02624446 -11 14 C-12.44509542 15.29092096 -13.84727201 16.63119983 -15.20703125 18.01171875 C-15.95791016 18.76904297 -16.70878906 19.52636719 -17.48242188 20.30664062 C-18.25134766 21.09232422 -19.02027344 21.87800781 -19.8125 22.6875 C-20.60076172 23.48478516 -21.38902344 24.28207031 -22.20117188 25.10351562 C-24.13872585 27.0645551 -26.07144276 29.03011881 -28 31 C-28.66 30.67 -29.32 30.34 -30 30 C-20.1 20.1 -10.2 10.2 0 0 Z " fill="#28789F" transform="translate(604,610)"/>
<path d="M0 0 C3.88755019 3.23962516 7.66755622 6.55082656 11.3125 10.0625 C12.29669922 11.00802734 12.29669922 11.00802734 13.30078125 11.97265625 C15.17105694 14.20408862 16.06407551 16.25873893 17 19 C13.95667235 17.6415798 11.87690849 16.11536976 9.546875 13.7421875 C8.61875 12.80439453 8.61875 12.80439453 7.671875 11.84765625 C7.03765625 11.19667969 6.4034375 10.54570313 5.75 9.875 C5.1003125 9.21628906 4.450625 8.55757812 3.78125 7.87890625 C2.18288273 6.25703357 0.58938103 4.6306719 -1 3 C-0.67 2.01 -0.34 1.02 0 0 Z " fill="#2E7AA1" transform="translate(366,588)"/>
<path d="M0 0 C0.66 0.33 1.32 0.66 2 1 C2 1.66 2 2.32 2 3 C1.34 3 0.68 3 0 3 C-0.33 3.99 -0.66 4.98 -1 6 C-2.96970699 7.74587665 -4.92954978 9.38524696 -7 11 C-7.94875 11.763125 -8.8975 12.52625 -9.875 13.3125 C-10.57625 13.869375 -11.2775 14.42625 -12 15 C-12.66 14.67 -13.32 14.34 -14 14 C-9.38 9.38 -4.76 4.76 0 0 Z " fill="#256A9E" transform="translate(544,670)"/>
<path d="M0 0 C0.33 0 0.66 0 1 0 C1.33 3.96 1.66 7.92 2 12 C1.34 12 0.68 12 0 12 C0 11.34 0 10.68 0 10 C-0.66 10 -1.32 10 -2 10 C-2 9.34 -2 8.68 -2 8 C-2.598125 7.87625 -3.19625 7.7525 -3.8125 7.625 C-6 7 -6 7 -9 5 C-9 4.01 -9 3.02 -9 2 C-8.01 2.33 -7.02 2.66 -6 3 C-6 3.66 -6 4.32 -6 5 C-4.35 5.33 -2.7 5.66 -1 6 C-0.67 4.02 -0.34 2.04 0 0 Z " fill="#75B9B7" transform="translate(593,459)"/>
<path d="M0 0 C1.4800841 0.11362262 2.95910074 0.24122908 4.4375 0.375 C5.26121094 0.44460938 6.08492187 0.51421875 6.93359375 0.5859375 C7.95646484 0.79089844 7.95646484 0.79089844 9 1 C9.33 1.66 9.66 2.32 10 3 C8.5625 5.625 8.5625 5.625 7 8 C6.34 7.67 5.68 7.34 5 7 C5 6.34 5 5.68 5 5 C4.01 4.67 3.02 4.34 2 4 C2 3.01 2 2.02 2 1 C1.34 0.67 0.68 0.34 0 0 Z " fill="#CAE7E2" transform="translate(585,454)"/>
<path d="M0 0 C1.8125 0.1875 1.8125 0.1875 4 1 C4.45375 1.763125 4.9075 2.52625 5.375 3.3125 C7.38099459 6.63010643 9.71125222 8.02675133 13 10 C12.67 11.32 12.34 12.64 12 14 C9.99387601 12.04761147 7.99507567 10.08862178 6 8.125 C5.42765625 7.56941406 4.8553125 7.01382813 4.265625 6.44140625 C2.80549218 4.99865596 1.39850702 3.5025626 0 2 C0 1.34 0 0.68 0 0 Z " fill="#3382A7" transform="translate(352,576)"/>
<path d="M0 0 C0 3.72207387 -1.17964568 5.46395589 -3 8.6875 C-3.8353125 10.17830078 -3.8353125 10.17830078 -4.6875 11.69921875 C-5.3371875 12.83810547 -5.3371875 12.83810547 -6 14 C-7.1171875 10.28125 -7.1171875 10.28125 -6.0625 7.75 C-5.5365625 6.88375 -5.5365625 6.88375 -5 6 C-6.32 5.67 -7.64 5.34 -9 5 C-6.03 3.35 -3.06 1.7 0 0 Z " fill="#449F98" transform="translate(310,341)"/>
<path d="M0 0 C5.29500913 1.36157378 7.23745533 4.60343955 10 9 C9.67 9.66 9.34 10.32 9 11 C7.49403892 9.54782324 5.99537896 8.08807139 4.5 6.625 C3.6646875 5.81289063 2.829375 5.00078125 1.96875 4.1640625 C0 2 0 2 0 0 Z " fill="#2B6FA5" transform="translate(443,667)"/>
<path d="M0 0 C0.33 1.32 0.66 2.64 1 4 C-0.21484375 5.921875 -0.21484375 5.921875 -1.9375 7.75 C-2.50339844 8.36359375 -3.06929687 8.9771875 -3.65234375 9.609375 C-4.31943359 10.29773438 -4.31943359 10.29773438 -5 11 C-5.66 10.67 -6.32 10.34 -7 10 C-3.535 5.05 -3.535 5.05 0 0 Z " fill="#3B9A98" transform="translate(607,438)"/>
<path d="M0 0 C0.65234375 1.734375 0.65234375 1.734375 1 4 C0.00390625 6.140625 0.00390625 6.140625 -1.4375 8.25 C-1.91058594 8.95640625 -2.38367188 9.6628125 -2.87109375 10.390625 C-3.24363281 10.92171875 -3.61617187 11.4528125 -4 12 C-4.33 11.34 -4.66 10.68 -5 10 C-4.2578125 7.87109375 -4.2578125 7.87109375 -3.125 5.4375 C-2.75632812 4.63183594 -2.38765625 3.82617188 -2.0078125 2.99609375 C-1 1 -1 1 0 0 Z " fill="#4FA2A0" transform="translate(654,437)"/>
<path d="M0 0 C0.99 0.33 1.98 0.66 3 1 C-0.96 4.465 -0.96 4.465 -5 8 C-5.66 7.67 -6.32 7.34 -7 7 C-4.69 4.69 -2.38 2.38 0 0 Z " fill="#3A8AAC" transform="translate(612,602)"/>
<path d="M0 0 C0.66 0.66 1.32 1.32 2 2 C1.64700993 5.44165321 0.95418308 7.06872538 -1 10 C-1.66 10 -2.32 10 -3 10 C-2.01 6.7 -1.02 3.4 0 0 Z " fill="#50A3A2" transform="translate(658,423)"/>
<path d="M0 0 C1.258125 -0.020625 2.51625 -0.04125 3.8125 -0.0625 C4.52019531 -0.07410156 5.22789062 -0.08570313 5.95703125 -0.09765625 C8 0 8 0 11 1 C11 2.98 11 4.96 11 7 C10.67 7 10.34 7 10 7 C10 5.35 10 3.7 10 2 C9.01 2 8.02 2 7 2 C6.67 2.66 6.34 3.32 6 4 C5.67 3.34 5.34 2.68 5 2 C2.47266765 1.34444881 2.47266765 1.34444881 0 1 C0 0.67 0 0.34 0 0 Z " fill="#7BBAB6" transform="translate(573,454)"/>
<path d="M0 0 C3.29456702 1.09818901 4.45501927 1.91003854 6 5 C5.67 5.66 5.34 6.32 5 7 C4.01 7 3.02 7 2 7 C1.34 4.69 0.68 2.38 0 0 Z " fill="#A3D2CE" transform="translate(587,458)"/>
<path d="M0 0 C0.66 0.99 1.32 1.98 2 3 C-0.97 5.475 -0.97 5.475 -4 8 C-2.25 2.25 -2.25 2.25 0 0 Z " fill="#2D659E" transform="translate(537,707)"/>
<path d="M0 0 C0.79921875 0.01804687 1.5984375 0.03609375 2.421875 0.0546875 C3.02515625 0.07789063 3.6284375 0.10109375 4.25 0.125 C4.25 0.455 4.25 0.785 4.25 1.125 C3.1775 1.24875 2.105 1.3725 1 1.5 C-2.12863615 2.02143936 -4.08480424 2.52588254 -6.75 4.125 C-7.41 3.465 -8.07 2.805 -8.75 2.125 C-5.68753253 0.34090198 -3.52920727 -0.10380021 0 0 Z " fill="#6EB1AE" transform="translate(785.75,452.875)"/>
<path d="M0 0 C-1.20381448 2.49361571 -2.45428722 4.68143083 -4 7 C-4.66 7 -5.32 7 -6 7 C-5.39816251 4.97954558 -4.72693904 2.97888961 -4 1 C-2 0 -2 0 0 0 Z " fill="#4CA29F" transform="translate(280,358)"/>
</svg>
